%TF.GenerationSoftware,KiCad,Pcbnew,9.0.6*%
%TF.CreationDate,2026-02-02T20:02:42-08:00*%
%TF.ProjectId,Display Device,44697370-6c61-4792-9044-65766963652e,rev?*%
%TF.SameCoordinates,Original*%
%TF.FileFunction,Copper,L2,Bot*%
%TF.FilePolarity,Positive*%
%FSLAX46Y46*%
G04 Gerber Fmt 4.6, Leading zero omitted, Abs format (unit mm)*
G04 Created by KiCad (PCBNEW 9.0.6) date 2026-02-02 20:02:42*
%MOMM*%
%LPD*%
G01*
G04 APERTURE LIST*
%TA.AperFunction,ComponentPad*%
%ADD10O,2.000000X1.600000*%
%TD*%
%TA.AperFunction,ComponentPad*%
%ADD11R,1.700000X1.700000*%
%TD*%
%TA.AperFunction,ComponentPad*%
%ADD12C,1.700000*%
%TD*%
%TA.AperFunction,ComponentPad*%
%ADD13R,2.000000X2.000000*%
%TD*%
%TA.AperFunction,ComponentPad*%
%ADD14C,2.000000*%
%TD*%
%TA.AperFunction,ComponentPad*%
%ADD15R,3.200000X2.000000*%
%TD*%
%TA.AperFunction,ComponentPad*%
%ADD16O,3.556000X1.778000*%
%TD*%
%TA.AperFunction,ComponentPad*%
%ADD17C,1.905000*%
%TD*%
G04 APERTURE END LIST*
D10*
%TO.P,Brd1,1,GND*%
%TO.N,GND*%
X220600000Y-65620000D03*
%TO.P,Brd1,2,VCC*%
%TO.N,+3.3V*%
X220600000Y-63080000D03*
%TO.P,Brd1,3,SCL*%
%TO.N,Net-(Brd1-SCL)*%
X220600000Y-60540000D03*
%TO.P,Brd1,4,SDA*%
%TO.N,Net-(Brd1-SDA)*%
X220600000Y-58000000D03*
%TD*%
D11*
%TO.P,BT1,1,+*%
%TO.N,/BAT*%
X220000000Y-82500000D03*
D12*
%TO.P,BT1,2,-*%
%TO.N,GND*%
X220000000Y-79960000D03*
%TD*%
D13*
%TO.P,SW2,A,A*%
%TO.N,Net-(U2-GPIO8_A9_D9_CIPO)*%
X188000000Y-85000000D03*
D14*
%TO.P,SW2,B,B*%
%TO.N,Net-(U2-GPIO7_A8_D8_SCK)*%
X188000000Y-90000000D03*
%TO.P,SW2,C,C*%
%TO.N,GND*%
X188000000Y-87500000D03*
D15*
%TO.P,SW2,MP*%
%TO.N,N/C*%
X180500000Y-93100000D03*
X180500000Y-81900000D03*
D14*
%TO.P,SW2,S1,S1*%
%TO.N,GND*%
X173500000Y-90000000D03*
%TO.P,SW2,S2,S2*%
%TO.N,Net-(U2-GPIO44_D7_RX)*%
X173500000Y-85000000D03*
%TD*%
D11*
%TO.P,SW1,1,A*%
%TO.N,unconnected-(SW1-A-Pad1)*%
X220000000Y-89000000D03*
D12*
%TO.P,SW1,2,B*%
%TO.N,/BAT*%
X217460000Y-89000000D03*
%TO.P,SW1,3,C*%
%TO.N,/VCC*%
X214920000Y-89000000D03*
%TD*%
D11*
%TO.P,D1,1,DOUT*%
%TO.N,unconnected-(D1-DOUT-Pad1)*%
X183540000Y-72000000D03*
D12*
%TO.P,D1,2,GND*%
%TO.N,GND*%
X181000000Y-72000000D03*
%TO.P,D1,3,VDD*%
%TO.N,+3.3V*%
X178460000Y-72000000D03*
%TO.P,D1,4,DIN*%
%TO.N,Net-(D1-DIN)*%
X175920000Y-72000000D03*
%TD*%
%TO.P,M1,1*%
%TO.N,Net-(U2-GPIO2_A1_D1)*%
X156810000Y-61070000D03*
%TO.P,M1,2,-*%
%TO.N,Net-(M1--)*%
X149190000Y-61070000D03*
%TO.P,M1,3*%
%TO.N,Net-(U2-GPIO3_A2_D2)*%
X149190000Y-83930000D03*
%TO.P,M1,4*%
%TO.N,Net-(U2-GPIO4_A3_D3)*%
X156810000Y-83930000D03*
%TD*%
D11*
%TO.P,SW3,1,A*%
%TO.N,Net-(SW3-A)*%
X206000000Y-81500000D03*
D12*
%TO.P,SW3,2,B*%
%TO.N,Net-(SW3-B)*%
X203460000Y-81500000D03*
%TD*%
D16*
%TO.P,U2,1,GPIO1_A0_D0*%
%TO.N,Net-(M1--)*%
X188882000Y-50800000D03*
%TO.P,U2,2,GPIO2_A1_D1*%
%TO.N,Net-(U2-GPIO2_A1_D1)*%
X188882000Y-53340000D03*
%TO.P,U2,3,GPIO3_A2_D2*%
%TO.N,Net-(U2-GPIO3_A2_D2)*%
X188882000Y-55880000D03*
%TO.P,U2,4,GPIO4_A3_D3*%
%TO.N,Net-(U2-GPIO4_A3_D3)*%
X188882000Y-58420000D03*
%TO.P,U2,5,GPIO4_A3_D3_SDA*%
%TO.N,Net-(Brd1-SDA)*%
X188882000Y-60960000D03*
%TO.P,U2,6,GPIO6_A5_D5_SCL*%
%TO.N,Net-(Brd1-SCL)*%
X188882000Y-63500000D03*
%TO.P,U2,7,GPIO43_TX_D6*%
%TO.N,Net-(SW3-B)*%
X188882000Y-66040000D03*
%TO.P,U2,8,GPIO44_D7_RX*%
%TO.N,Net-(U2-GPIO44_D7_RX)*%
X172118000Y-66040000D03*
%TO.P,U2,9,GPIO7_A8_D8_SCK*%
%TO.N,Net-(U2-GPIO7_A8_D8_SCK)*%
X172118000Y-63500000D03*
%TO.P,U2,10,GPIO8_A9_D9_CIPO*%
%TO.N,Net-(U2-GPIO8_A9_D9_CIPO)*%
X172118000Y-60960000D03*
%TO.P,U2,11,GPIO9_A10_D10_COPI*%
%TO.N,Net-(D1-DIN)*%
X172118000Y-58420000D03*
%TO.P,U2,12,3V3*%
%TO.N,+3.3V*%
X172118000Y-55880000D03*
%TO.P,U2,13,GND*%
%TO.N,GND*%
X172118000Y-53340000D03*
%TO.P,U2,14,5V*%
%TO.N,/VCC*%
X172118000Y-50800000D03*
D17*
%TO.P,U2,15,+BATT*%
%TO.N,unconnected-(U2-+BATT-Pad15)*%
X183040000Y-76200000D03*
%TO.P,U2,16,-BATT*%
%TO.N,unconnected-(U2--BATT-Pad16)*%
X177960000Y-76200000D03*
%TD*%
%TA.AperFunction,Conductor*%
%TO.N,GND*%
G36*
X226006922Y-47001280D02*
G01*
X226097266Y-47011459D01*
X226124331Y-47017636D01*
X226203540Y-47045352D01*
X226228553Y-47057398D01*
X226299606Y-47102043D01*
X226321313Y-47119355D01*
X226380644Y-47178686D01*
X226397957Y-47200395D01*
X226442600Y-47271444D01*
X226454648Y-47296462D01*
X226482362Y-47375666D01*
X226488540Y-47402735D01*
X226498720Y-47493076D01*
X226499500Y-47506961D01*
X226499500Y-95493038D01*
X226498720Y-95506922D01*
X226498720Y-95506923D01*
X226488540Y-95597264D01*
X226482362Y-95624333D01*
X226454648Y-95703537D01*
X226442600Y-95728555D01*
X226397957Y-95799604D01*
X226380644Y-95821313D01*
X226321313Y-95880644D01*
X226299604Y-95897957D01*
X226228555Y-95942600D01*
X226203537Y-95954648D01*
X226124333Y-95982362D01*
X226097264Y-95988540D01*
X226017075Y-95997576D01*
X226006921Y-95998720D01*
X225993038Y-95999500D01*
X137006962Y-95999500D01*
X136993078Y-95998720D01*
X136980553Y-95997308D01*
X136902735Y-95988540D01*
X136875666Y-95982362D01*
X136796462Y-95954648D01*
X136771444Y-95942600D01*
X136700395Y-95897957D01*
X136678686Y-95880644D01*
X136619355Y-95821313D01*
X136602042Y-95799604D01*
X136557399Y-95728555D01*
X136545351Y-95703537D01*
X136517637Y-95624333D01*
X136511459Y-95597263D01*
X136501280Y-95506922D01*
X136500500Y-95493038D01*
X136500500Y-92052135D01*
X178399500Y-92052135D01*
X178399500Y-94147870D01*
X178399501Y-94147876D01*
X178405908Y-94207483D01*
X178456202Y-94342328D01*
X178456206Y-94342335D01*
X178542452Y-94457544D01*
X178542455Y-94457547D01*
X178657664Y-94543793D01*
X178657671Y-94543797D01*
X178792517Y-94594091D01*
X178792516Y-94594091D01*
X178799444Y-94594835D01*
X178852127Y-94600500D01*
X182147872Y-94600499D01*
X182207483Y-94594091D01*
X182342331Y-94543796D01*
X182457546Y-94457546D01*
X182543796Y-94342331D01*
X182594091Y-94207483D01*
X182600500Y-94147873D01*
X182600499Y-92052128D01*
X182594091Y-91992517D01*
X182543796Y-91857669D01*
X182543795Y-91857668D01*
X182543793Y-91857664D01*
X182457547Y-91742455D01*
X182457544Y-91742452D01*
X182342335Y-91656206D01*
X182342328Y-91656202D01*
X182207482Y-91605908D01*
X182207483Y-91605908D01*
X182147883Y-91599501D01*
X182147881Y-91599500D01*
X182147873Y-91599500D01*
X182147864Y-91599500D01*
X178852129Y-91599500D01*
X178852123Y-91599501D01*
X178792516Y-91605908D01*
X178657671Y-91656202D01*
X178657664Y-91656206D01*
X178542455Y-91742452D01*
X178542452Y-91742455D01*
X178456206Y-91857664D01*
X178456202Y-91857671D01*
X178405908Y-91992517D01*
X178399501Y-92052116D01*
X178399501Y-92052123D01*
X178399500Y-92052135D01*
X136500500Y-92052135D01*
X136500500Y-89881947D01*
X172000000Y-89881947D01*
X172000000Y-90118052D01*
X172036934Y-90351247D01*
X172109897Y-90575802D01*
X172217087Y-90786174D01*
X172277338Y-90869104D01*
X172277340Y-90869105D01*
X173017037Y-90129408D01*
X173034075Y-90192993D01*
X173099901Y-90307007D01*
X173192993Y-90400099D01*
X173307007Y-90465925D01*
X173370590Y-90482962D01*
X172630893Y-91222658D01*
X172713828Y-91282914D01*
X172924197Y-91390102D01*
X173148752Y-91463065D01*
X173148751Y-91463065D01*
X173381948Y-91500000D01*
X173618052Y-91500000D01*
X173851247Y-91463065D01*
X174075802Y-91390102D01*
X174286163Y-91282918D01*
X174286169Y-91282914D01*
X174369104Y-91222658D01*
X174369105Y-91222658D01*
X173629408Y-90482962D01*
X173692993Y-90465925D01*
X173807007Y-90400099D01*
X173900099Y-90307007D01*
X173965925Y-90192993D01*
X173982962Y-90129408D01*
X174722658Y-90869105D01*
X174722658Y-90869104D01*
X174782914Y-90786169D01*
X174782918Y-90786163D01*
X174890102Y-90575802D01*
X174963065Y-90351247D01*
X175000000Y-90118052D01*
X175000000Y-89881947D01*
X174963065Y-89648752D01*
X174890102Y-89424197D01*
X174782914Y-89213828D01*
X174722658Y-89130894D01*
X174722658Y-89130893D01*
X173982962Y-89870590D01*
X173965925Y-89807007D01*
X173900099Y-89692993D01*
X173807007Y-89599901D01*
X173692993Y-89534075D01*
X173629409Y-89517037D01*
X174369105Y-88777340D01*
X174369104Y-88777338D01*
X174286174Y-88717087D01*
X174075802Y-88609897D01*
X173851247Y-88536934D01*
X173851248Y-88536934D01*
X173618052Y-88500000D01*
X173381948Y-88500000D01*
X173148752Y-88536934D01*
X172924197Y-88609897D01*
X172713830Y-88717084D01*
X172630894Y-88777340D01*
X173370591Y-89517037D01*
X173307007Y-89534075D01*
X173192993Y-89599901D01*
X173099901Y-89692993D01*
X173034075Y-89807007D01*
X173017037Y-89870591D01*
X172277340Y-89130894D01*
X172217084Y-89213830D01*
X172109897Y-89424197D01*
X172036934Y-89648752D01*
X172000000Y-89881947D01*
X136500500Y-89881947D01*
X136500500Y-85885837D01*
X151549500Y-85885837D01*
X151549500Y-86114162D01*
X151585215Y-86339660D01*
X151655770Y-86556803D01*
X151735777Y-86713824D01*
X151759421Y-86760228D01*
X151893621Y-86944937D01*
X152055063Y-87106379D01*
X152239772Y-87240579D01*
X152335884Y-87289550D01*
X152443196Y-87344229D01*
X152443198Y-87344229D01*
X152443201Y-87344231D01*
X152545343Y-87377419D01*
X152660339Y-87414784D01*
X152885838Y-87450500D01*
X152885843Y-87450500D01*
X153114162Y-87450500D01*
X153339660Y-87414784D01*
X153351601Y-87410904D01*
X153556799Y-87344231D01*
X153760228Y-87240579D01*
X153944937Y-87106379D01*
X154106379Y-86944937D01*
X154240579Y-86760228D01*
X154344231Y-86556799D01*
X154414784Y-86339660D01*
X154430199Y-86242335D01*
X154450500Y-86114162D01*
X154450500Y-85885837D01*
X154414784Y-85660339D01*
X154344229Y-85443196D01*
X154240578Y-85239771D01*
X154198283Y-85181557D01*
X154106379Y-85055063D01*
X153944937Y-84893621D01*
X153760228Y-84759421D01*
X153556803Y-84655770D01*
X153339660Y-84585215D01*
X153114162Y-84549500D01*
X153114157Y-84549500D01*
X152885843Y-84549500D01*
X152885838Y-84549500D01*
X152660339Y-84585215D01*
X152443196Y-84655770D01*
X152239771Y-84759421D01*
X152055061Y-84893622D01*
X151893622Y-85055061D01*
X151759421Y-85239771D01*
X151655770Y-85443196D01*
X151585215Y-85660339D01*
X151549500Y-85885837D01*
X136500500Y-85885837D01*
X136500500Y-83823713D01*
X147839500Y-83823713D01*
X147839500Y-84036286D01*
X147872753Y-84246239D01*
X147938444Y-84448414D01*
X148034951Y-84637820D01*
X148159890Y-84809786D01*
X148310213Y-84960109D01*
X148482179Y-85085048D01*
X148482181Y-85085049D01*
X148482184Y-85085051D01*
X148671588Y-85181557D01*
X148873757Y-85247246D01*
X149083713Y-85280500D01*
X149083714Y-85280500D01*
X149296286Y-85280500D01*
X149296287Y-85280500D01*
X149506243Y-85247246D01*
X149708412Y-85181557D01*
X149897816Y-85085051D01*
X149939094Y-85055061D01*
X150069786Y-84960109D01*
X150069788Y-84960106D01*
X150069792Y-84960104D01*
X150220104Y-84809792D01*
X150220106Y-84809788D01*
X150220109Y-84809786D01*
X150345048Y-84637820D01*
X150345049Y-84637819D01*
X150345051Y-84637816D01*
X150441557Y-84448412D01*
X150507246Y-84246243D01*
X150540500Y-84036287D01*
X150540500Y-83823713D01*
X155459500Y-83823713D01*
X155459500Y-84036286D01*
X155492753Y-84246239D01*
X155558444Y-84448414D01*
X155654951Y-84637820D01*
X155779890Y-84809786D01*
X155930213Y-84960109D01*
X156102179Y-85085048D01*
X156102181Y-85085049D01*
X156102184Y-85085051D01*
X156291588Y-85181557D01*
X156493757Y-85247246D01*
X156703713Y-85280500D01*
X156703714Y-85280500D01*
X156916286Y-85280500D01*
X156916287Y-85280500D01*
X157126243Y-85247246D01*
X157328412Y-85181557D01*
X157517816Y-85085051D01*
X157559094Y-85055061D01*
X157689786Y-84960109D01*
X157689788Y-84960106D01*
X157689792Y-84960104D01*
X157767994Y-84881902D01*
X171999500Y-84881902D01*
X171999500Y-85118097D01*
X172036446Y-85351368D01*
X172109433Y-85575996D01*
X172152409Y-85660340D01*
X172216657Y-85786433D01*
X172355483Y-85977510D01*
X172522490Y-86144517D01*
X172713567Y-86283343D01*
X172812991Y-86334002D01*
X172924003Y-86390566D01*
X172924005Y-86390566D01*
X172924008Y-86390568D01*
X173000076Y-86415284D01*
X173148631Y-86463553D01*
X173381903Y-86500500D01*
X173381908Y-86500500D01*
X173618097Y-86500500D01*
X173851368Y-86463553D01*
X173906455Y-86445654D01*
X174075992Y-86390568D01*
X174286433Y-86283343D01*
X174477510Y-86144517D01*
X174644517Y-85977510D01*
X174783343Y-85786433D01*
X174890568Y-85575992D01*
X174963553Y-85351368D01*
X175000500Y-85118097D01*
X175000500Y-84881902D01*
X174963553Y-84648631D01*
X174890566Y-84424003D01*
X174783342Y-84213566D01*
X174644517Y-84022490D01*
X174574162Y-83952135D01*
X186499500Y-83952135D01*
X186499500Y-86047870D01*
X186499501Y-86047876D01*
X186505908Y-86107483D01*
X186556202Y-86242328D01*
X186556206Y-86242335D01*
X186642452Y-86357544D01*
X186642453Y-86357544D01*
X186642454Y-86357546D01*
X186686563Y-86390566D01*
X186760599Y-86445990D01*
X186802469Y-86501924D01*
X186807453Y-86571615D01*
X186786605Y-86618141D01*
X186717087Y-86713824D01*
X186609897Y-86924197D01*
X186536934Y-87148752D01*
X186500000Y-87381947D01*
X186500000Y-87618052D01*
X186536934Y-87851247D01*
X186609897Y-88075802D01*
X186717087Y-88286174D01*
X186777338Y-88369104D01*
X186777340Y-88369105D01*
X187517037Y-87629408D01*
X187534075Y-87692993D01*
X187599901Y-87807007D01*
X187692993Y-87900099D01*
X187807007Y-87965925D01*
X187870590Y-87982962D01*
X187124280Y-88729271D01*
X187115105Y-88772947D01*
X187078739Y-88814615D01*
X187022490Y-88855482D01*
X186855485Y-89022487D01*
X186855485Y-89022488D01*
X186855483Y-89022490D01*
X186795862Y-89104550D01*
X186716657Y-89213566D01*
X186609433Y-89424003D01*
X186536446Y-89648631D01*
X186499500Y-89881902D01*
X186499500Y-90118097D01*
X186536446Y-90351368D01*
X186609433Y-90575996D01*
X186716519Y-90786163D01*
X186716657Y-90786433D01*
X186855483Y-90977510D01*
X187022490Y-91144517D01*
X187213567Y-91283343D01*
X187312991Y-91334002D01*
X187424003Y-91390566D01*
X187424005Y-91390566D01*
X187424008Y-91390568D01*
X187544412Y-91429689D01*
X187648631Y-91463553D01*
X187881903Y-91500500D01*
X187881908Y-91500500D01*
X188118097Y-91500500D01*
X188351368Y-91463553D01*
X188352870Y-91463065D01*
X188575992Y-91390568D01*
X188786433Y-91283343D01*
X188977510Y-91144517D01*
X189144517Y-90977510D01*
X189283343Y-90786433D01*
X189390568Y-90575992D01*
X189463553Y-90351368D01*
X189472671Y-90293797D01*
X189500500Y-90118097D01*
X189500500Y-89881902D01*
X189463553Y-89648631D01*
X189415259Y-89500000D01*
X189390568Y-89424008D01*
X189390566Y-89424005D01*
X189390566Y-89424003D01*
X189283477Y-89213830D01*
X189283343Y-89213567D01*
X189144517Y-89022490D01*
X189015740Y-88893713D01*
X213569500Y-88893713D01*
X213569500Y-89106286D01*
X213602753Y-89316239D01*
X213668444Y-89518414D01*
X213764951Y-89707820D01*
X213889890Y-89879786D01*
X214040213Y-90030109D01*
X214212179Y-90155048D01*
X214212181Y-90155049D01*
X214212184Y-90155051D01*
X214401588Y-90251557D01*
X214603757Y-90317246D01*
X214813713Y-90350500D01*
X214813714Y-90350500D01*
X215026286Y-90350500D01*
X215026287Y-90350500D01*
X215236243Y-90317246D01*
X215438412Y-90251557D01*
X215627816Y-90155051D01*
X215714138Y-90092335D01*
X215799786Y-90030109D01*
X215799788Y-90030106D01*
X215799792Y-90030104D01*
X215950104Y-89879792D01*
X215950106Y-89879788D01*
X215950109Y-89879786D01*
X216075048Y-89707820D01*
X216075047Y-89707820D01*
X216075051Y-89707816D01*
X216079514Y-89699054D01*
X216127488Y-89648259D01*
X216195308Y-89631463D01*
X216261444Y-89653999D01*
X216300486Y-89699056D01*
X216304951Y-89707820D01*
X216429890Y-89879786D01*
X216580213Y-90030109D01*
X216752179Y-90155048D01*
X216752181Y-90155049D01*
X216752184Y-90155051D01*
X216941588Y-90251557D01*
X217143757Y-90317246D01*
X217353713Y-90350500D01*
X217353714Y-90350500D01*
X217566286Y-90350500D01*
X217566287Y-90350500D01*
X217776243Y-90317246D01*
X217978412Y-90251557D01*
X218167816Y-90155051D01*
X218339792Y-90030104D01*
X218453329Y-89916566D01*
X218514648Y-89883084D01*
X218584340Y-89888068D01*
X218640274Y-89929939D01*
X218657189Y-89960917D01*
X218706202Y-90092328D01*
X218706206Y-90092335D01*
X218792452Y-90207544D01*
X218792455Y-90207547D01*
X218907664Y-90293793D01*
X218907671Y-90293797D01*
X219042517Y-90344091D01*
X219042516Y-90344091D01*
X219049444Y-90344835D01*
X219102127Y-90350500D01*
X220897872Y-90350499D01*
X220957483Y-90344091D01*
X221092331Y-90293796D01*
X221207546Y-90207546D01*
X221293796Y-90092331D01*
X221344091Y-89957483D01*
X221350500Y-89897873D01*
X221350499Y-88102128D01*
X221344091Y-88042517D01*
X221342810Y-88039083D01*
X221293797Y-87907671D01*
X221293793Y-87907664D01*
X221207547Y-87792455D01*
X221207544Y-87792452D01*
X221092335Y-87706206D01*
X221092328Y-87706202D01*
X220957482Y-87655908D01*
X220957483Y-87655908D01*
X220897883Y-87649501D01*
X220897881Y-87649500D01*
X220897873Y-87649500D01*
X220897864Y-87649500D01*
X219102129Y-87649500D01*
X219102123Y-87649501D01*
X219042516Y-87655908D01*
X218907671Y-87706202D01*
X218907664Y-87706206D01*
X218792455Y-87792452D01*
X218792452Y-87792455D01*
X218706206Y-87907664D01*
X218706203Y-87907669D01*
X218657189Y-88039083D01*
X218615317Y-88095016D01*
X218549853Y-88119433D01*
X218481580Y-88104581D01*
X218453326Y-88083430D01*
X218339786Y-87969890D01*
X218167820Y-87844951D01*
X217978414Y-87748444D01*
X217978413Y-87748443D01*
X217978412Y-87748443D01*
X217776243Y-87682754D01*
X217776241Y-87682753D01*
X217776240Y-87682753D01*
X217614957Y-87657208D01*
X217566287Y-87649500D01*
X217353713Y-87649500D01*
X217305042Y-87657208D01*
X217143760Y-87682753D01*
X216941585Y-87748444D01*
X216752179Y-87844951D01*
X216580213Y-87969890D01*
X216429890Y-88120213D01*
X216304949Y-88292182D01*
X216300484Y-88300946D01*
X216252509Y-88351742D01*
X216184688Y-88368536D01*
X216118553Y-88345998D01*
X216079516Y-88300946D01*
X216075050Y-88292182D01*
X215950109Y-88120213D01*
X215799786Y-87969890D01*
X215627820Y-87844951D01*
X215438414Y-87748444D01*
X215438413Y-87748443D01*
X215438412Y-87748443D01*
X215236243Y-87682754D01*
X215236241Y-87682753D01*
X215236240Y-87682753D01*
X215074957Y-87657208D01*
X215026287Y-87649500D01*
X214813713Y-87649500D01*
X214765042Y-87657208D01*
X214603760Y-87682753D01*
X214401585Y-87748444D01*
X214212179Y-87844951D01*
X214040213Y-87969890D01*
X213889890Y-88120213D01*
X213764951Y-88292179D01*
X213668444Y-88481585D01*
X213602753Y-88683760D01*
X213569500Y-88893713D01*
X189015740Y-88893713D01*
X188977510Y-88855483D01*
X188921259Y-88814614D01*
X188878595Y-88759284D01*
X188873902Y-88727455D01*
X188129408Y-87982962D01*
X188192993Y-87965925D01*
X188307007Y-87900099D01*
X188400099Y-87807007D01*
X188465925Y-87692993D01*
X188482962Y-87629409D01*
X189222658Y-88369105D01*
X189222658Y-88369104D01*
X189282914Y-88286169D01*
X189282918Y-88286163D01*
X189390102Y-88075802D01*
X189463065Y-87851247D01*
X189500000Y-87618052D01*
X189500000Y-87381947D01*
X189463065Y-87148752D01*
X189390102Y-86924197D01*
X189282914Y-86713828D01*
X189213394Y-86618142D01*
X189189914Y-86552335D01*
X189205739Y-86484281D01*
X189239401Y-86445989D01*
X189242329Y-86443796D01*
X189242331Y-86443796D01*
X189357546Y-86357546D01*
X189443796Y-86242331D01*
X189494091Y-86107483D01*
X189500500Y-86047873D01*
X189500499Y-83952128D01*
X189494091Y-83892517D01*
X189480278Y-83855483D01*
X189443797Y-83757671D01*
X189443793Y-83757664D01*
X189357547Y-83642455D01*
X189357544Y-83642452D01*
X189242335Y-83556206D01*
X189242328Y-83556202D01*
X189107482Y-83505908D01*
X189107483Y-83505908D01*
X189047883Y-83499501D01*
X189047881Y-83499500D01*
X189047873Y-83499500D01*
X189047864Y-83499500D01*
X186952129Y-83499500D01*
X186952123Y-83499501D01*
X186892516Y-83505908D01*
X186757671Y-83556202D01*
X186757664Y-83556206D01*
X186642455Y-83642452D01*
X186642452Y-83642455D01*
X186556206Y-83757664D01*
X186556202Y-83757671D01*
X186505908Y-83892517D01*
X186499501Y-83952116D01*
X186499501Y-83952123D01*
X186499500Y-83952135D01*
X174574162Y-83952135D01*
X174477510Y-83855483D01*
X174286433Y-83716657D01*
X174268548Y-83707544D01*
X174075996Y-83609433D01*
X173851368Y-83536446D01*
X173618097Y-83499500D01*
X173618092Y-83499500D01*
X173381908Y-83499500D01*
X173381903Y-83499500D01*
X173148631Y-83536446D01*
X172924003Y-83609433D01*
X172713566Y-83716657D01*
X172657119Y-83757669D01*
X172522490Y-83855483D01*
X172522488Y-83855485D01*
X172522487Y-83855485D01*
X172355485Y-84022487D01*
X172355485Y-84022488D01*
X172355483Y-84022490D01*
X172345460Y-84036286D01*
X172216657Y-84213566D01*
X172109433Y-84424003D01*
X172036446Y-84648631D01*
X171999500Y-84881902D01*
X157767994Y-84881902D01*
X157840104Y-84809792D01*
X157840513Y-84809228D01*
X157844201Y-84804154D01*
X157844202Y-84804153D01*
X157844203Y-84804151D01*
X157895367Y-84733727D01*
X157965051Y-84637816D01*
X158061557Y-84448412D01*
X158127246Y-84246243D01*
X158160500Y-84036287D01*
X158160500Y-83823713D01*
X158127246Y-83613757D01*
X158061557Y-83411588D01*
X157965051Y-83222184D01*
X157965049Y-83222181D01*
X157965048Y-83222179D01*
X157840109Y-83050213D01*
X157689786Y-82899890D01*
X157517820Y-82774951D01*
X157328414Y-82678444D01*
X157328413Y-82678443D01*
X157328412Y-82678443D01*
X157126243Y-82612754D01*
X157126241Y-82612753D01*
X157126240Y-82612753D01*
X156964957Y-82587208D01*
X156916287Y-82579500D01*
X156703713Y-82579500D01*
X156655042Y-82587208D01*
X156493760Y-82612753D01*
X156291585Y-82678444D01*
X156102179Y-82774951D01*
X155930213Y-82899890D01*
X155779890Y-83050213D01*
X155654951Y-83222179D01*
X155558444Y-83411585D01*
X155492753Y-83613760D01*
X155459500Y-83823713D01*
X150540500Y-83823713D01*
X150507246Y-83613757D01*
X150441557Y-83411588D01*
X150345051Y-83222184D01*
X150345049Y-83222181D01*
X150345048Y-83222179D01*
X150220109Y-83050213D01*
X150069786Y-82899890D01*
X149897820Y-82774951D01*
X149708414Y-82678444D01*
X149708413Y-82678443D01*
X149708412Y-82678443D01*
X149506243Y-82612754D01*
X149506241Y-82612753D01*
X149506240Y-82612753D01*
X149344957Y-82587208D01*
X149296287Y-82579500D01*
X149083713Y-82579500D01*
X149035042Y-82587208D01*
X148873760Y-82612753D01*
X148671585Y-82678444D01*
X148482179Y-82774951D01*
X148310213Y-82899890D01*
X148159890Y-83050213D01*
X148034951Y-83222179D01*
X147938444Y-83411585D01*
X147872753Y-83613760D01*
X147839500Y-83823713D01*
X136500500Y-83823713D01*
X136500500Y-81381995D01*
X142199500Y-81381995D01*
X142199500Y-81618004D01*
X142199501Y-81618020D01*
X142230306Y-81852010D01*
X142291394Y-82079993D01*
X142381714Y-82298045D01*
X142381719Y-82298056D01*
X142439344Y-82397864D01*
X142499727Y-82502450D01*
X142499729Y-82502453D01*
X142499730Y-82502454D01*
X142643406Y-82689697D01*
X142643412Y-82689704D01*
X142810295Y-82856587D01*
X142810301Y-82856592D01*
X142997550Y-83000273D01*
X143084049Y-83050213D01*
X143201943Y-83118280D01*
X143201948Y-83118282D01*
X143201951Y-83118284D01*
X143420007Y-83208606D01*
X143647986Y-83269693D01*
X143881989Y-83300500D01*
X143881996Y-83300500D01*
X144118004Y-83300500D01*
X144118011Y-83300500D01*
X144352014Y-83269693D01*
X144579993Y-83208606D01*
X144798049Y-83118284D01*
X145002450Y-83000273D01*
X145189699Y-82856592D01*
X145356592Y-82689699D01*
X145500273Y-82502450D01*
X145618284Y-82298049D01*
X145708606Y-82079993D01*
X145769693Y-81852014D01*
X145800500Y-81618011D01*
X145800500Y-81381989D01*
X145769693Y-81147986D01*
X145708606Y-80920007D01*
X145680492Y-80852135D01*
X178399500Y-80852135D01*
X178399500Y-82947870D01*
X178399501Y-82947876D01*
X178405908Y-83007483D01*
X178456202Y-83142328D01*
X178456206Y-83142335D01*
X178542452Y-83257544D01*
X178542455Y-83257547D01*
X178657664Y-83343793D01*
X178657671Y-83343797D01*
X178792517Y-83394091D01*
X178792516Y-83394091D01*
X178799444Y-83394835D01*
X178852127Y-83400500D01*
X182147872Y-83400499D01*
X182207483Y-83394091D01*
X182342331Y-83343796D01*
X182457546Y-83257546D01*
X182543796Y-83142331D01*
X182594091Y-83007483D01*
X182600500Y-82947873D01*
X182600499Y-81393713D01*
X202109500Y-81393713D01*
X202109500Y-81606287D01*
X202142754Y-81816243D01*
X202154375Y-81852010D01*
X202208444Y-82018414D01*
X202304951Y-82207820D01*
X202429890Y-82379786D01*
X202580213Y-82530109D01*
X202752179Y-82655048D01*
X202752181Y-82655049D01*
X202752184Y-82655051D01*
X202941588Y-82751557D01*
X203143757Y-82817246D01*
X203353713Y-82850500D01*
X203353714Y-82850500D01*
X203566286Y-82850500D01*
X203566287Y-82850500D01*
X203776243Y-82817246D01*
X203978412Y-82751557D01*
X204167816Y-82655051D01*
X204339792Y-82530104D01*
X204453329Y-82416566D01*
X204514648Y-82383084D01*
X204584340Y-82388068D01*
X204640274Y-82429939D01*
X204657189Y-82460917D01*
X204706202Y-82592328D01*
X204706206Y-82592335D01*
X204792452Y-82707544D01*
X204792455Y-82707547D01*
X204907664Y-82793793D01*
X204907671Y-82793797D01*
X205042517Y-82844091D01*
X205042516Y-82844091D01*
X205049444Y-82844835D01*
X205102127Y-82850500D01*
X206897872Y-82850499D01*
X206957483Y-82844091D01*
X207092331Y-82793796D01*
X207207546Y-82707546D01*
X207293796Y-82592331D01*
X207344091Y-82457483D01*
X207350500Y-82397873D01*
X207350499Y-81602135D01*
X218649500Y-81602135D01*
X218649500Y-83397870D01*
X218649501Y-83397876D01*
X218655908Y-83457483D01*
X218706202Y-83592328D01*
X218706206Y-83592335D01*
X218792452Y-83707544D01*
X218792455Y-83707547D01*
X218907664Y-83793793D01*
X218907671Y-83793797D01*
X219042517Y-83844091D01*
X219042516Y-83844091D01*
X219049444Y-83844835D01*
X219102127Y-83850500D01*
X220897872Y-83850499D01*
X220957483Y-83844091D01*
X221092331Y-83793796D01*
X221207546Y-83707546D01*
X221293796Y-83592331D01*
X221344091Y-83457483D01*
X221350500Y-83397873D01*
X221350499Y-81602128D01*
X221344091Y-81542517D01*
X221293796Y-81407669D01*
X221293795Y-81407668D01*
X221293793Y-81407664D01*
X221207547Y-81292455D01*
X221207544Y-81292452D01*
X221092335Y-81206206D01*
X221092328Y-81206202D01*
X220957482Y-81155908D01*
X220957483Y-81155908D01*
X220897883Y-81149501D01*
X220897881Y-81149500D01*
X220897873Y-81149500D01*
X220897865Y-81149500D01*
X220887309Y-81149500D01*
X220820270Y-81129815D01*
X220799628Y-81113181D01*
X220129408Y-80442962D01*
X220192993Y-80425925D01*
X220307007Y-80360099D01*
X220400099Y-80267007D01*
X220465925Y-80152993D01*
X220482962Y-80089408D01*
X221115270Y-80721717D01*
X221115270Y-80721716D01*
X221154622Y-80667554D01*
X221251095Y-80478217D01*
X221316757Y-80276130D01*
X221316757Y-80276127D01*
X221350000Y-80066246D01*
X221350000Y-79853753D01*
X221316757Y-79643872D01*
X221316757Y-79643869D01*
X221251095Y-79441782D01*
X221154624Y-79252449D01*
X221115270Y-79198282D01*
X221115269Y-79198282D01*
X220482962Y-79830590D01*
X220465925Y-79767007D01*
X220400099Y-79652993D01*
X220307007Y-79559901D01*
X220192993Y-79494075D01*
X220129409Y-79477037D01*
X220761716Y-78844728D01*
X220707550Y-78805375D01*
X220518217Y-78708904D01*
X220316129Y-78643242D01*
X220106246Y-78610000D01*
X219893754Y-78610000D01*
X219683872Y-78643242D01*
X219683869Y-78643242D01*
X219481782Y-78708904D01*
X219292439Y-78805380D01*
X219238282Y-78844727D01*
X219238282Y-78844728D01*
X219870591Y-79477037D01*
X219807007Y-79494075D01*
X219692993Y-79559901D01*
X219599901Y-79652993D01*
X219534075Y-79767007D01*
X219517037Y-79830591D01*
X218884728Y-79198282D01*
X218884727Y-79198282D01*
X218845380Y-79252439D01*
X218748904Y-79441782D01*
X218683242Y-79643869D01*
X218683242Y-79643872D01*
X218650000Y-79853753D01*
X218650000Y-80066246D01*
X218683242Y-80276127D01*
X218683242Y-80276130D01*
X218748904Y-80478217D01*
X218845375Y-80667550D01*
X218884728Y-80721716D01*
X219517037Y-80089408D01*
X219534075Y-80152993D01*
X219599901Y-80267007D01*
X219692993Y-80360099D01*
X219807007Y-80425925D01*
X219870590Y-80442962D01*
X219200370Y-81113181D01*
X219139047Y-81146666D01*
X219112698Y-81149500D01*
X219102134Y-81149500D01*
X219102123Y-81149501D01*
X219042516Y-81155908D01*
X218907671Y-81206202D01*
X218907664Y-81206206D01*
X218792455Y-81292452D01*
X218792452Y-81292455D01*
X218706206Y-81407664D01*
X218706202Y-81407671D01*
X218655908Y-81542517D01*
X218649857Y-81598805D01*
X218649501Y-81602123D01*
X218649500Y-81602135D01*
X207350499Y-81602135D01*
X207350499Y-81421635D01*
X207350499Y-80602129D01*
X207350498Y-80602123D01*
X207344091Y-80542516D01*
X207293797Y-80407671D01*
X207293793Y-80407664D01*
X207207547Y-80292455D01*
X207207544Y-80292452D01*
X207092335Y-80206206D01*
X207092328Y-80206202D01*
X206957482Y-80155908D01*
X206957483Y-80155908D01*
X206897883Y-80149501D01*
X206897881Y-80149500D01*
X206897873Y-80149500D01*
X206897864Y-80149500D01*
X205102129Y-80149500D01*
X205102123Y-80149501D01*
X205042516Y-80155908D01*
X204907671Y-80206202D01*
X204907664Y-80206206D01*
X204792455Y-80292452D01*
X204792452Y-80292455D01*
X204706206Y-80407664D01*
X204706203Y-80407669D01*
X204657189Y-80539083D01*
X204615317Y-80595016D01*
X204549853Y-80619433D01*
X204481580Y-80604581D01*
X204453326Y-80583430D01*
X204339786Y-80469890D01*
X204167820Y-80344951D01*
X203978414Y-80248444D01*
X203978413Y-80248443D01*
X203978412Y-80248443D01*
X203776243Y-80182754D01*
X203776241Y-80182753D01*
X203776240Y-80182753D01*
X203614957Y-80157208D01*
X203566287Y-80149500D01*
X203353713Y-80149500D01*
X203305042Y-80157208D01*
X203143760Y-80182753D01*
X202941585Y-80248444D01*
X202752179Y-80344951D01*
X202580213Y-80469890D01*
X202429890Y-80620213D01*
X202304951Y-80792179D01*
X202208444Y-80981585D01*
X202142753Y-81183760D01*
X202139198Y-81206206D01*
X202109500Y-81393713D01*
X182600499Y-81393713D01*
X182600499Y-80852128D01*
X182594091Y-80792517D01*
X182567684Y-80721717D01*
X182543797Y-80657671D01*
X182543793Y-80657664D01*
X182457547Y-80542455D01*
X182457544Y-80542452D01*
X182342335Y-80456206D01*
X182342328Y-80456202D01*
X182207482Y-80405908D01*
X182207483Y-80405908D01*
X182147883Y-80399501D01*
X182147881Y-80399500D01*
X182147873Y-80399500D01*
X182147864Y-80399500D01*
X178852129Y-80399500D01*
X178852123Y-80399501D01*
X178792516Y-80405908D01*
X178657671Y-80456202D01*
X178657664Y-80456206D01*
X178542455Y-80542452D01*
X178542452Y-80542455D01*
X178456206Y-80657664D01*
X178456202Y-80657671D01*
X178405908Y-80792517D01*
X178399501Y-80852116D01*
X178399501Y-80852123D01*
X178399500Y-80852135D01*
X145680492Y-80852135D01*
X145618284Y-80701951D01*
X145618282Y-80701948D01*
X145618280Y-80701943D01*
X145576118Y-80628918D01*
X145500273Y-80497550D01*
X145431301Y-80407664D01*
X145356593Y-80310302D01*
X145356587Y-80310295D01*
X145189704Y-80143412D01*
X145189697Y-80143406D01*
X145002457Y-79999732D01*
X145002455Y-79999730D01*
X145002450Y-79999727D01*
X144927174Y-79956266D01*
X144798056Y-79881719D01*
X144798045Y-79881714D01*
X144579993Y-79791394D01*
X144352010Y-79730306D01*
X144118020Y-79699501D01*
X144118017Y-79699500D01*
X144118011Y-79699500D01*
X143881989Y-79699500D01*
X143881983Y-79699500D01*
X143881979Y-79699501D01*
X143647989Y-79730306D01*
X143420006Y-79791394D01*
X143201954Y-79881714D01*
X143201943Y-79881719D01*
X142997545Y-79999730D01*
X142810302Y-80143406D01*
X142810295Y-80143412D01*
X142643412Y-80310295D01*
X142643406Y-80310302D01*
X142499730Y-80497545D01*
X142381719Y-80701943D01*
X142381714Y-80701954D01*
X142291394Y-80920006D01*
X142230306Y-81147989D01*
X142199501Y-81381979D01*
X142199500Y-81381995D01*
X136500500Y-81381995D01*
X136500500Y-76085646D01*
X176507000Y-76085646D01*
X176507000Y-76314353D01*
X176542778Y-76540246D01*
X176542778Y-76540249D01*
X176613450Y-76757755D01*
X176613452Y-76757758D01*
X176717283Y-76961538D01*
X176851714Y-77146566D01*
X177013434Y-77308286D01*
X177198462Y-77442717D01*
X177402242Y-77546548D01*
X177402244Y-77546549D01*
X177619751Y-77617221D01*
X177619752Y-77617221D01*
X177619755Y-77617222D01*
X177845646Y-77653000D01*
X177845647Y-77653000D01*
X178074353Y-77653000D01*
X178074354Y-77653000D01*
X178300245Y-77617222D01*
X178300248Y-77617221D01*
X178300249Y-77617221D01*
X178517755Y-77546549D01*
X178517755Y-77546548D01*
X178517758Y-77546548D01*
X178721538Y-77442717D01*
X178906566Y-77308286D01*
X179068286Y-77146566D01*
X179202717Y-76961538D01*
X179306548Y-76757758D01*
X179377222Y-76540245D01*
X179413000Y-76314354D01*
X179413000Y-76085646D01*
X181587000Y-76085646D01*
X181587000Y-76314353D01*
X181622778Y-76540246D01*
X181622778Y-76540249D01*
X181693450Y-76757755D01*
X181693452Y-76757758D01*
X181797283Y-76961538D01*
X181931714Y-77146566D01*
X182093434Y-77308286D01*
X182278462Y-77442717D01*
X182482242Y-77546548D01*
X182482244Y-77546549D01*
X182699751Y-77617221D01*
X182699752Y-77617221D01*
X182699755Y-77617222D01*
X182925646Y-77653000D01*
X182925647Y-77653000D01*
X183154353Y-77653000D01*
X183154354Y-77653000D01*
X183380245Y-77617222D01*
X183380248Y-77617221D01*
X183380249Y-77617221D01*
X183597755Y-77546549D01*
X183597755Y-77546548D01*
X183597758Y-77546548D01*
X183801538Y-77442717D01*
X183986566Y-77308286D01*
X184148286Y-77146566D01*
X184282717Y-76961538D01*
X184386548Y-76757758D01*
X184457222Y-76540245D01*
X184493000Y-76314354D01*
X184493000Y-76085646D01*
X184457222Y-75859755D01*
X184457221Y-75859751D01*
X184457221Y-75859750D01*
X184386549Y-75642244D01*
X184282716Y-75438461D01*
X184148286Y-75253434D01*
X183986566Y-75091714D01*
X183801538Y-74957283D01*
X183607544Y-74858438D01*
X183597755Y-74853450D01*
X183380248Y-74782778D01*
X183210826Y-74755944D01*
X183154354Y-74747000D01*
X182925646Y-74747000D01*
X182850349Y-74758926D01*
X182699753Y-74782778D01*
X182699750Y-74782778D01*
X182482244Y-74853450D01*
X182278461Y-74957283D01*
X182172896Y-75033980D01*
X182093434Y-75091714D01*
X182093432Y-75091716D01*
X182093431Y-75091716D01*
X181931716Y-75253431D01*
X181931716Y-75253432D01*
X181931714Y-75253434D01*
X181873980Y-75332896D01*
X181797283Y-75438461D01*
X181693450Y-75642244D01*
X181622778Y-75859750D01*
X181622778Y-75859753D01*
X181587000Y-76085646D01*
X179413000Y-76085646D01*
X179377222Y-75859755D01*
X179377221Y-75859751D01*
X179377221Y-75859750D01*
X179306549Y-75642244D01*
X179202716Y-75438461D01*
X179068286Y-75253434D01*
X178906566Y-75091714D01*
X178721538Y-74957283D01*
X178527544Y-74858438D01*
X178517755Y-74853450D01*
X178300248Y-74782778D01*
X178130826Y-74755944D01*
X178074354Y-74747000D01*
X177845646Y-74747000D01*
X177770349Y-74758926D01*
X177619753Y-74782778D01*
X177619750Y-74782778D01*
X177402244Y-74853450D01*
X177198461Y-74957283D01*
X177092896Y-75033980D01*
X177013434Y-75091714D01*
X177013432Y-75091716D01*
X177013431Y-75091716D01*
X176851716Y-75253431D01*
X176851716Y-75253432D01*
X176851714Y-75253434D01*
X176793980Y-75332896D01*
X176717283Y-75438461D01*
X176613450Y-75642244D01*
X176542778Y-75859750D01*
X176542778Y-75859753D01*
X176507000Y-76085646D01*
X136500500Y-76085646D01*
X136500500Y-72362378D01*
X160549500Y-72362378D01*
X160549500Y-72637621D01*
X160580315Y-72911108D01*
X160580317Y-72911124D01*
X160641561Y-73179453D01*
X160641565Y-73179465D01*
X160732467Y-73439246D01*
X160851884Y-73687218D01*
X160851886Y-73687221D01*
X160998319Y-73920268D01*
X161169925Y-74135455D01*
X161364545Y-74330075D01*
X161579732Y-74501681D01*
X161812779Y-74648114D01*
X162060757Y-74767534D01*
X162255865Y-74835805D01*
X162320534Y-74858434D01*
X162320546Y-74858438D01*
X162588879Y-74919683D01*
X162862378Y-74950499D01*
X162862379Y-74950500D01*
X162862383Y-74950500D01*
X163137621Y-74950500D01*
X163137621Y-74950499D01*
X163411121Y-74919683D01*
X163679454Y-74858438D01*
X163939243Y-74767534D01*
X164187221Y-74648114D01*
X164420268Y-74501681D01*
X164635455Y-74330075D01*
X164830075Y-74135455D01*
X165001681Y-73920268D01*
X165148114Y-73687221D01*
X165267534Y-73439243D01*
X165358438Y-73179454D01*
X165419683Y-72911121D01*
X165450500Y-72637617D01*
X165450500Y-72362383D01*
X165419683Y-72088879D01*
X165399397Y-71999999D01*
X165380324Y-71916433D01*
X165375138Y-71893713D01*
X174569500Y-71893713D01*
X174569500Y-72106287D01*
X174602754Y-72316243D01*
X174617744Y-72362378D01*
X174668444Y-72518414D01*
X174764951Y-72707820D01*
X174889890Y-72879786D01*
X175040213Y-73030109D01*
X175212179Y-73155048D01*
X175212181Y-73155049D01*
X175212184Y-73155051D01*
X175401588Y-73251557D01*
X175603757Y-73317246D01*
X175813713Y-73350500D01*
X175813714Y-73350500D01*
X176026286Y-73350500D01*
X176026287Y-73350500D01*
X176236243Y-73317246D01*
X176438412Y-73251557D01*
X176627816Y-73155051D01*
X176714138Y-73092335D01*
X176799786Y-73030109D01*
X176799788Y-73030106D01*
X176799792Y-73030104D01*
X176950104Y-72879792D01*
X176950106Y-72879788D01*
X176950109Y-72879786D01*
X177075048Y-72707820D01*
X177075047Y-72707820D01*
X177075051Y-72707816D01*
X177079514Y-72699054D01*
X177127488Y-72648259D01*
X177195308Y-72631463D01*
X177261444Y-72653999D01*
X177300486Y-72699056D01*
X177304951Y-72707820D01*
X177429890Y-72879786D01*
X177580213Y-73030109D01*
X177752179Y-73155048D01*
X177752181Y-73155049D01*
X177752184Y-73155051D01*
X177941588Y-73251557D01*
X178143757Y-73317246D01*
X178353713Y-73350500D01*
X178353714Y-73350500D01*
X178566286Y-73350500D01*
X178566287Y-73350500D01*
X178776243Y-73317246D01*
X178978412Y-73251557D01*
X179167816Y-73155051D01*
X179254138Y-73092335D01*
X179339786Y-73030109D01*
X179339788Y-73030106D01*
X179339792Y-73030104D01*
X179490104Y-72879792D01*
X179490106Y-72879788D01*
X179490109Y-72879786D01*
X179557515Y-72787007D01*
X179615051Y-72707816D01*
X179619793Y-72698508D01*
X179667763Y-72647711D01*
X179735583Y-72630911D01*
X179801719Y-72653445D01*
X179840763Y-72698500D01*
X179845373Y-72707547D01*
X179884728Y-72761716D01*
X180517037Y-72129408D01*
X180534075Y-72192993D01*
X180599901Y-72307007D01*
X180692993Y-72400099D01*
X180807007Y-72465925D01*
X180870590Y-72482962D01*
X180238282Y-73115269D01*
X180238282Y-73115270D01*
X180292449Y-73154624D01*
X180481782Y-73251095D01*
X180683870Y-73316757D01*
X180893754Y-73350000D01*
X181106246Y-73350000D01*
X181316127Y-73316757D01*
X181316130Y-73316757D01*
X181518217Y-73251095D01*
X181707554Y-73154622D01*
X181761716Y-73115270D01*
X181761717Y-73115270D01*
X181129408Y-72482962D01*
X181192993Y-72465925D01*
X181307007Y-72400099D01*
X181400099Y-72307007D01*
X181465925Y-72192993D01*
X181482962Y-72129408D01*
X182153181Y-72799628D01*
X182186666Y-72860951D01*
X182189500Y-72887300D01*
X182189500Y-72897865D01*
X182189501Y-72897876D01*
X182195908Y-72957483D01*
X182246202Y-73092328D01*
X182246206Y-73092335D01*
X182332452Y-73207544D01*
X182332455Y-73207547D01*
X182447664Y-73293793D01*
X182447671Y-73293797D01*
X182582517Y-73344091D01*
X182582516Y-73344091D01*
X182589444Y-73344835D01*
X182642127Y-73350500D01*
X184437872Y-73350499D01*
X184497483Y-73344091D01*
X184632331Y-73293796D01*
X184747546Y-73207546D01*
X184833796Y-73092331D01*
X184884091Y-72957483D01*
X184890500Y-72897873D01*
X184890499Y-71102128D01*
X184884091Y-71042517D01*
X184833796Y-70907669D01*
X184833795Y-70907668D01*
X184833793Y-70907664D01*
X184747547Y-70792455D01*
X184747544Y-70792452D01*
X184632335Y-70706206D01*
X184632328Y-70706202D01*
X184497482Y-70655908D01*
X184497483Y-70655908D01*
X184437883Y-70649501D01*
X184437881Y-70649500D01*
X184437873Y-70649500D01*
X184437864Y-70649500D01*
X182642129Y-70649500D01*
X182642123Y-70649501D01*
X182582516Y-70655908D01*
X182447671Y-70706202D01*
X182447664Y-70706206D01*
X182332455Y-70792452D01*
X182332452Y-70792455D01*
X182246206Y-70907664D01*
X182246202Y-70907671D01*
X182195908Y-71042517D01*
X182189501Y-71102116D01*
X182189501Y-71102123D01*
X182189500Y-71102135D01*
X182189500Y-71112690D01*
X182169815Y-71179729D01*
X182153181Y-71200371D01*
X181482962Y-71870590D01*
X181465925Y-71807007D01*
X181400099Y-71692993D01*
X181307007Y-71599901D01*
X181192993Y-71534075D01*
X181129409Y-71517037D01*
X181761716Y-70884728D01*
X181707550Y-70845375D01*
X181518217Y-70748904D01*
X181316129Y-70683242D01*
X181106246Y-70650000D01*
X180893754Y-70650000D01*
X180683872Y-70683242D01*
X180683869Y-70683242D01*
X180481782Y-70748904D01*
X180292439Y-70845380D01*
X180238282Y-70884727D01*
X180238282Y-70884728D01*
X180870591Y-71517037D01*
X180807007Y-71534075D01*
X180692993Y-71599901D01*
X180599901Y-71692993D01*
X180534075Y-71807007D01*
X180517037Y-71870591D01*
X179884728Y-71238282D01*
X179884727Y-71238282D01*
X179845380Y-71292440D01*
X179845376Y-71292446D01*
X179840760Y-71301505D01*
X179792781Y-71352297D01*
X179724959Y-71369087D01*
X179658826Y-71346543D01*
X179619794Y-71301493D01*
X179615051Y-71292184D01*
X179615049Y-71292181D01*
X179615048Y-71292179D01*
X179490109Y-71120213D01*
X179339786Y-70969890D01*
X179167820Y-70844951D01*
X178978414Y-70748444D01*
X178978413Y-70748443D01*
X178978412Y-70748443D01*
X178776243Y-70682754D01*
X178776241Y-70682753D01*
X178776240Y-70682753D01*
X178614957Y-70657208D01*
X178566287Y-70649500D01*
X178353713Y-70649500D01*
X178305042Y-70657208D01*
X178143760Y-70682753D01*
X177941585Y-70748444D01*
X177752179Y-70844951D01*
X177580213Y-70969890D01*
X177429890Y-71120213D01*
X177304949Y-71292182D01*
X177300484Y-71300946D01*
X177252509Y-71351742D01*
X177184688Y-71368536D01*
X177118553Y-71345998D01*
X177079516Y-71300946D01*
X177075050Y-71292182D01*
X176950109Y-71120213D01*
X176799786Y-70969890D01*
X176627820Y-70844951D01*
X176438414Y-70748444D01*
X176438413Y-70748443D01*
X176438412Y-70748443D01*
X176236243Y-70682754D01*
X176236241Y-70682753D01*
X176236240Y-70682753D01*
X176074957Y-70657208D01*
X176026287Y-70649500D01*
X175813713Y-70649500D01*
X175765042Y-70657208D01*
X175603760Y-70682753D01*
X175401585Y-70748444D01*
X175212179Y-70844951D01*
X175040213Y-70969890D01*
X174889890Y-71120213D01*
X174764951Y-71292179D01*
X174668444Y-71481585D01*
X174602753Y-71683760D01*
X174569500Y-71893713D01*
X165375138Y-71893713D01*
X165358437Y-71820543D01*
X165358434Y-71820534D01*
X165313805Y-71692993D01*
X165267534Y-71560757D01*
X165148114Y-71312779D01*
X165001681Y-71079732D01*
X164830075Y-70864545D01*
X164635455Y-70669925D01*
X164420268Y-70498319D01*
X164187221Y-70351886D01*
X164187218Y-70351884D01*
X163939246Y-70232467D01*
X163679465Y-70141565D01*
X163679453Y-70141561D01*
X163411124Y-70080317D01*
X163411108Y-70080315D01*
X163137621Y-70049500D01*
X163137617Y-70049500D01*
X162862383Y-70049500D01*
X162862379Y-70049500D01*
X162588891Y-70080315D01*
X162588875Y-70080317D01*
X162320546Y-70141561D01*
X162320534Y-70141565D01*
X162060753Y-70232467D01*
X161812781Y-70351884D01*
X161579733Y-70498318D01*
X161364545Y-70669924D01*
X161169924Y-70864545D01*
X160998318Y-71079733D01*
X160851884Y-71312781D01*
X160732467Y-71560753D01*
X160641565Y-71820534D01*
X160641561Y-71820546D01*
X160580317Y-72088875D01*
X160580315Y-72088891D01*
X160549500Y-72362378D01*
X136500500Y-72362378D01*
X136500500Y-60963713D01*
X147839500Y-60963713D01*
X147839500Y-61176287D01*
X147872754Y-61386243D01*
X147920102Y-61531966D01*
X147938444Y-61588414D01*
X148034951Y-61777820D01*
X148159890Y-61949786D01*
X148310213Y-62100109D01*
X148482179Y-62225048D01*
X148482181Y-62225049D01*
X148482184Y-62225051D01*
X148671588Y-62321557D01*
X148873757Y-62387246D01*
X149083713Y-62420500D01*
X149083714Y-62420500D01*
X149296286Y-62420500D01*
X149296287Y-62420500D01*
X149506243Y-62387246D01*
X149708412Y-62321557D01*
X149897816Y-62225051D01*
X149952927Y-62185011D01*
X150069786Y-62100109D01*
X150069788Y-62100106D01*
X150069792Y-62100104D01*
X150220104Y-61949792D01*
X150220106Y-61949788D01*
X150220109Y-61949786D01*
X150345048Y-61777820D01*
X150345047Y-61777820D01*
X150345051Y-61777816D01*
X150441557Y-61588412D01*
X150507246Y-61386243D01*
X150540500Y-61176287D01*
X150540500Y-60963713D01*
X155459500Y-60963713D01*
X155459500Y-61176287D01*
X155492754Y-61386243D01*
X155540102Y-61531966D01*
X155558444Y-61588414D01*
X155654951Y-61777820D01*
X155779890Y-61949786D01*
X155930213Y-62100109D01*
X156102179Y-62225048D01*
X156102181Y-62225049D01*
X156102184Y-62225051D01*
X156291588Y-62321557D01*
X156493757Y-62387246D01*
X156703713Y-62420500D01*
X156703714Y-62420500D01*
X156916286Y-62420500D01*
X156916287Y-62420500D01*
X157126243Y-62387246D01*
X157328412Y-62321557D01*
X157517816Y-62225051D01*
X157572927Y-62185011D01*
X157689786Y-62100109D01*
X157689788Y-62100106D01*
X157689792Y-62100104D01*
X157840104Y-61949792D01*
X157840106Y-61949788D01*
X157840109Y-61949786D01*
X157965048Y-61777820D01*
X157965047Y-61777820D01*
X157965051Y-61777816D01*
X158061557Y-61588412D01*
X158127246Y-61386243D01*
X158160500Y-61176287D01*
X158160500Y-60963713D01*
X158127246Y-60753757D01*
X158061557Y-60551588D01*
X157965051Y-60362184D01*
X157965049Y-60362181D01*
X157965048Y-60362179D01*
X157840109Y-60190213D01*
X157689786Y-60039890D01*
X157517820Y-59914951D01*
X157328414Y-59818444D01*
X157328413Y-59818443D01*
X157328412Y-59818443D01*
X157126243Y-59752754D01*
X157126241Y-59752753D01*
X157126240Y-59752753D01*
X156964957Y-59727208D01*
X156916287Y-59719500D01*
X156703713Y-59719500D01*
X156655042Y-59727208D01*
X156493760Y-59752753D01*
X156291585Y-59818444D01*
X156102179Y-59914951D01*
X155930213Y-60039890D01*
X155779890Y-60190213D01*
X155654951Y-60362179D01*
X155558444Y-60551585D01*
X155492753Y-60753760D01*
X155478376Y-60844534D01*
X155459500Y-60963713D01*
X150540500Y-60963713D01*
X150507246Y-60753757D01*
X150441557Y-60551588D01*
X150345051Y-60362184D01*
X150345049Y-60362181D01*
X150345048Y-60362179D01*
X150220109Y-60190213D01*
X150069786Y-60039890D01*
X149897820Y-59914951D01*
X149708414Y-59818444D01*
X149708413Y-59818443D01*
X149708412Y-59818443D01*
X149506243Y-59752754D01*
X149506241Y-59752753D01*
X149506240Y-59752753D01*
X149344957Y-59727208D01*
X149296287Y-59719500D01*
X149083713Y-59719500D01*
X149035042Y-59727208D01*
X148873760Y-59752753D01*
X148671585Y-59818444D01*
X148482179Y-59914951D01*
X148310213Y-60039890D01*
X148159890Y-60190213D01*
X148034951Y-60362179D01*
X147938444Y-60551585D01*
X147872753Y-60753760D01*
X147858376Y-60844534D01*
X147839500Y-60963713D01*
X136500500Y-60963713D01*
X136500500Y-58885837D01*
X151549500Y-58885837D01*
X151549500Y-59114162D01*
X151585215Y-59339660D01*
X151655770Y-59556803D01*
X151736185Y-59714625D01*
X151759421Y-59760228D01*
X151893621Y-59944937D01*
X152055063Y-60106379D01*
X152239772Y-60240579D01*
X152335884Y-60289550D01*
X152443196Y-60344229D01*
X152443198Y-60344229D01*
X152443201Y-60344231D01*
X152559592Y-60382049D01*
X152660339Y-60414784D01*
X152885838Y-60450500D01*
X152885843Y-60450500D01*
X153114162Y-60450500D01*
X153339660Y-60414784D01*
X153556799Y-60344231D01*
X153760228Y-60240579D01*
X153944937Y-60106379D01*
X154106379Y-59944937D01*
X154240579Y-59760228D01*
X154344231Y-59556799D01*
X154414784Y-59339660D01*
X154435718Y-59207490D01*
X154450500Y-59114162D01*
X154450500Y-58885837D01*
X154414784Y-58660339D01*
X154372226Y-58529361D01*
X154344231Y-58443201D01*
X154344229Y-58443198D01*
X154344229Y-58443196D01*
X154240578Y-58239771D01*
X154106379Y-58055063D01*
X153944937Y-57893621D01*
X153760228Y-57759421D01*
X153556803Y-57655770D01*
X153339660Y-57585215D01*
X153114162Y-57549500D01*
X153114157Y-57549500D01*
X152885843Y-57549500D01*
X152885838Y-57549500D01*
X152660339Y-57585215D01*
X152443196Y-57655770D01*
X152239771Y-57759421D01*
X152055061Y-57893622D01*
X151893622Y-58055061D01*
X151759421Y-58239771D01*
X151655770Y-58443196D01*
X151585215Y-58660339D01*
X151549500Y-58885837D01*
X136500500Y-58885837D01*
X136500500Y-50690638D01*
X169839500Y-50690638D01*
X169839500Y-50909361D01*
X169873714Y-51125376D01*
X169941297Y-51333380D01*
X169941298Y-51333383D01*
X170040595Y-51528260D01*
X170169142Y-51705193D01*
X170323802Y-51859853D01*
X170323807Y-51859857D01*
X170475394Y-51969991D01*
X170518060Y-52025320D01*
X170524039Y-52094934D01*
X170491434Y-52156729D01*
X170475394Y-52170627D01*
X170324133Y-52280524D01*
X170324128Y-52280528D01*
X170169528Y-52435128D01*
X170169524Y-52435133D01*
X170041023Y-52612001D01*
X169941762Y-52806808D01*
X169941761Y-52806811D01*
X169874201Y-53014741D01*
X169862282Y-53090000D01*
X172437749Y-53090000D01*
X172406619Y-53143919D01*
X172372000Y-53273120D01*
X172372000Y-53406880D01*
X172406619Y-53536081D01*
X172437749Y-53590000D01*
X169862282Y-53590000D01*
X169874201Y-53665258D01*
X169941761Y-53873188D01*
X169941762Y-53873191D01*
X170041023Y-54067998D01*
X170169524Y-54244866D01*
X170169528Y-54244871D01*
X170324128Y-54399471D01*
X170324133Y-54399475D01*
X170475394Y-54509372D01*
X170518060Y-54564701D01*
X170524039Y-54634315D01*
X170491434Y-54696110D01*
X170475394Y-54710008D01*
X170323807Y-54820142D01*
X170323802Y-54820146D01*
X170169142Y-54974806D01*
X170040595Y-55151739D01*
X169941298Y-55346616D01*
X169941297Y-55346619D01*
X169873714Y-55554623D01*
X169839500Y-55770638D01*
X169839500Y-55989361D01*
X169873714Y-56205376D01*
X169941297Y-56413380D01*
X169941298Y-56413383D01*
X170040595Y-56608260D01*
X170169142Y-56785193D01*
X170323806Y-56939857D01*
X170474969Y-57049682D01*
X170517635Y-57105011D01*
X170523614Y-57174625D01*
X170491009Y-57236420D01*
X170474969Y-57250318D01*
X170323806Y-57360142D01*
X170169142Y-57514806D01*
X170040595Y-57691739D01*
X169941298Y-57886616D01*
X169941297Y-57886619D01*
X169873714Y-58094623D01*
X169839500Y-58310638D01*
X169839500Y-58529361D01*
X169873714Y-58745376D01*
X169941297Y-58953380D01*
X169941298Y-58953383D01*
X170040595Y-59148260D01*
X170169142Y-59325193D01*
X170323806Y-59479857D01*
X170474969Y-59589682D01*
X170517635Y-59645011D01*
X170523614Y-59714625D01*
X170491009Y-59776420D01*
X170474969Y-59790318D01*
X170323806Y-59900142D01*
X170169142Y-60054806D01*
X170040595Y-60231739D01*
X169941298Y-60426616D01*
X169941297Y-60426619D01*
X169873714Y-60634623D01*
X169839500Y-60850638D01*
X169839500Y-61069361D01*
X169873714Y-61285376D01*
X169941297Y-61493380D01*
X169941298Y-61493383D01*
X170040595Y-61688260D01*
X170169142Y-61865193D01*
X170323806Y-62019857D01*
X170474969Y-62129682D01*
X170517635Y-62185011D01*
X170523614Y-62254625D01*
X170491009Y-62316420D01*
X170474969Y-62330318D01*
X170323806Y-62440142D01*
X170169142Y-62594806D01*
X170040595Y-62771739D01*
X169941298Y-62966616D01*
X169941297Y-62966619D01*
X169873714Y-63174623D01*
X169839500Y-63390638D01*
X169839500Y-63609361D01*
X169873714Y-63825376D01*
X169941297Y-64033380D01*
X169941298Y-64033383D01*
X170040595Y-64228260D01*
X170169142Y-64405193D01*
X170323806Y-64559857D01*
X170474969Y-64669682D01*
X170517635Y-64725011D01*
X170523614Y-64794625D01*
X170491009Y-64856420D01*
X170474969Y-64870318D01*
X170323806Y-64980142D01*
X170169142Y-65134806D01*
X170040595Y-65311739D01*
X169941298Y-65506616D01*
X169941297Y-65506619D01*
X169873714Y-65714623D01*
X169839500Y-65930638D01*
X169839500Y-66149361D01*
X169873714Y-66365376D01*
X169941297Y-66573380D01*
X169941298Y-66573383D01*
X170040595Y-66768260D01*
X170169142Y-66945193D01*
X170323806Y-67099857D01*
X170489374Y-67220147D01*
X170500743Y-67228407D01*
X170628132Y-67293315D01*
X170695616Y-67327701D01*
X170695619Y-67327702D01*
X170799621Y-67361493D01*
X170903625Y-67395286D01*
X171003672Y-67411132D01*
X171119639Y-67429500D01*
X171119644Y-67429500D01*
X173116361Y-67429500D01*
X173221082Y-67412912D01*
X173332375Y-67395286D01*
X173540383Y-67327701D01*
X173735257Y-67228407D01*
X173834601Y-67156229D01*
X173912193Y-67099857D01*
X173912195Y-67099854D01*
X173912199Y-67099852D01*
X174066852Y-66945199D01*
X174066854Y-66945195D01*
X174066857Y-66945193D01*
X174154359Y-66824755D01*
X174195407Y-66768257D01*
X174294701Y-66573383D01*
X174362286Y-66365375D01*
X174379912Y-66254082D01*
X174396500Y-66149361D01*
X174396500Y-65930638D01*
X174376595Y-65804971D01*
X174362286Y-65714625D01*
X174294701Y-65506617D01*
X174294701Y-65506616D01*
X174254137Y-65427007D01*
X174195407Y-65311743D01*
X174187147Y-65300374D01*
X174066857Y-65134806D01*
X173912199Y-64980148D01*
X173912191Y-64980142D01*
X173761028Y-64870316D01*
X173718364Y-64814989D01*
X173712385Y-64745376D01*
X173744990Y-64683580D01*
X173761023Y-64669686D01*
X173912199Y-64559852D01*
X174066852Y-64405199D01*
X174066854Y-64405195D01*
X174066857Y-64405193D01*
X174123229Y-64327601D01*
X174195407Y-64228257D01*
X174294701Y-64033383D01*
X174362286Y-63825375D01*
X174379912Y-63714082D01*
X174396500Y-63609361D01*
X174396500Y-63390638D01*
X174376595Y-63264971D01*
X174362286Y-63174625D01*
X174294701Y-62966617D01*
X174294701Y-62966616D01*
X174260315Y-62899132D01*
X174195407Y-62771743D01*
X174187147Y-62760374D01*
X174066857Y-62594806D01*
X173912199Y-62440148D01*
X173912191Y-62440142D01*
X173761028Y-62330316D01*
X173718364Y-62274989D01*
X173712385Y-62205376D01*
X173744990Y-62143580D01*
X173761023Y-62129686D01*
X173912199Y-62019852D01*
X174066852Y-61865199D01*
X174066854Y-61865195D01*
X174066857Y-61865193D01*
X174154021Y-61745220D01*
X174195407Y-61688257D01*
X174294701Y-61493383D01*
X174362286Y-61285375D01*
X174379912Y-61174082D01*
X174396500Y-61069361D01*
X174396500Y-60850638D01*
X174376595Y-60724971D01*
X174362286Y-60634625D01*
X174294701Y-60426617D01*
X174294701Y-60426616D01*
X174252722Y-60344229D01*
X174195407Y-60231743D01*
X174165234Y-60190213D01*
X174066857Y-60054806D01*
X173912199Y-59900148D01*
X173912191Y-59900142D01*
X173761028Y-59790316D01*
X173718364Y-59734989D01*
X173712385Y-59665376D01*
X173744990Y-59603580D01*
X173761023Y-59589686D01*
X173912199Y-59479852D01*
X174066852Y-59325199D01*
X174066854Y-59325195D01*
X174066857Y-59325193D01*
X174154021Y-59205220D01*
X174195407Y-59148257D01*
X174294701Y-58953383D01*
X174362286Y-58745375D01*
X174387732Y-58584716D01*
X174396500Y-58529361D01*
X174396500Y-58310638D01*
X174376595Y-58184971D01*
X174362286Y-58094625D01*
X174294701Y-57886617D01*
X174294701Y-57886616D01*
X174260315Y-57819132D01*
X174195407Y-57691743D01*
X174169271Y-57655769D01*
X174066857Y-57514806D01*
X173912199Y-57360148D01*
X173912191Y-57360142D01*
X173761028Y-57250316D01*
X173718364Y-57194989D01*
X173712385Y-57125376D01*
X173744990Y-57063580D01*
X173761023Y-57049686D01*
X173912199Y-56939852D01*
X174066852Y-56785199D01*
X174066854Y-56785195D01*
X174066857Y-56785193D01*
X174123229Y-56707601D01*
X174195407Y-56608257D01*
X174294701Y-56413383D01*
X174362286Y-56205375D01*
X174379912Y-56094082D01*
X174396500Y-55989361D01*
X174396500Y-55770638D01*
X174376595Y-55644971D01*
X174362286Y-55554625D01*
X174294701Y-55346617D01*
X174294701Y-55346616D01*
X174260315Y-55279132D01*
X174195407Y-55151743D01*
X174187147Y-55140374D01*
X174066857Y-54974806D01*
X173912197Y-54820146D01*
X173912192Y-54820142D01*
X173760605Y-54710008D01*
X173717939Y-54654678D01*
X173711960Y-54585065D01*
X173744565Y-54523270D01*
X173760605Y-54509371D01*
X173911873Y-54399469D01*
X174066471Y-54244871D01*
X174066475Y-54244866D01*
X174194976Y-54067998D01*
X174294237Y-53873191D01*
X174294238Y-53873188D01*
X174361798Y-53665258D01*
X174373718Y-53590000D01*
X173322251Y-53590000D01*
X173353381Y-53536081D01*
X173388000Y-53406880D01*
X173388000Y-53273120D01*
X173353381Y-53143919D01*
X173322251Y-53090000D01*
X174373718Y-53090000D01*
X174361798Y-53014741D01*
X174294238Y-52806811D01*
X174294237Y-52806808D01*
X174194976Y-52612001D01*
X174066475Y-52435133D01*
X174066471Y-52435128D01*
X173911871Y-52280528D01*
X173911866Y-52280524D01*
X173760605Y-52170627D01*
X173717939Y-52115297D01*
X173711960Y-52045684D01*
X173744565Y-51983889D01*
X173760599Y-51969994D01*
X173912199Y-51859852D01*
X174066852Y-51705199D01*
X174066854Y-51705195D01*
X174066857Y-51705193D01*
X174123229Y-51627601D01*
X174195407Y-51528257D01*
X174294701Y-51333383D01*
X174362286Y-51125375D01*
X174379912Y-51014082D01*
X174396500Y-50909361D01*
X174396500Y-50690638D01*
X186603500Y-50690638D01*
X186603500Y-50909361D01*
X186637714Y-51125376D01*
X186705297Y-51333380D01*
X186705298Y-51333383D01*
X186804595Y-51528260D01*
X186933142Y-51705193D01*
X187087806Y-51859857D01*
X187238969Y-51969682D01*
X187281635Y-52025011D01*
X187287614Y-52094625D01*
X187255009Y-52156420D01*
X187238969Y-52170318D01*
X187087806Y-52280142D01*
X186933142Y-52434806D01*
X186804595Y-52611739D01*
X186705298Y-52806616D01*
X186705297Y-52806619D01*
X186637714Y-53014623D01*
X186603500Y-53230638D01*
X186603500Y-53449361D01*
X186637714Y-53665376D01*
X186705297Y-53873380D01*
X186705298Y-53873383D01*
X186772782Y-54005825D01*
X186804461Y-54067998D01*
X186804595Y-54068260D01*
X186933142Y-54245193D01*
X187087806Y-54399857D01*
X187238969Y-54509682D01*
X187281635Y-54565011D01*
X187287614Y-54634625D01*
X187255009Y-54696420D01*
X187238969Y-54710318D01*
X187087806Y-54820142D01*
X186933142Y-54974806D01*
X186804595Y-55151739D01*
X186705298Y-55346616D01*
X186705297Y-55346619D01*
X186637714Y-55554623D01*
X186603500Y-55770638D01*
X186603500Y-55989361D01*
X186637714Y-56205376D01*
X186705297Y-56413380D01*
X186705298Y-56413383D01*
X186804595Y-56608260D01*
X186933142Y-56785193D01*
X187087806Y-56939857D01*
X187238969Y-57049682D01*
X187281635Y-57105011D01*
X187287614Y-57174625D01*
X187255009Y-57236420D01*
X187238969Y-57250318D01*
X187087806Y-57360142D01*
X186933142Y-57514806D01*
X186804595Y-57691739D01*
X186705298Y-57886616D01*
X186705297Y-57886619D01*
X186637714Y-58094623D01*
X186603500Y-58310638D01*
X186603500Y-58529361D01*
X186637714Y-58745376D01*
X186705297Y-58953380D01*
X186705298Y-58953383D01*
X186804595Y-59148260D01*
X186933142Y-59325193D01*
X187087806Y-59479857D01*
X187238969Y-59589682D01*
X187281635Y-59645011D01*
X187287614Y-59714625D01*
X187255009Y-59776420D01*
X187238969Y-59790318D01*
X187087806Y-59900142D01*
X186933142Y-60054806D01*
X186804595Y-60231739D01*
X186705298Y-60426616D01*
X186705297Y-60426619D01*
X186637714Y-60634623D01*
X186603500Y-60850638D01*
X186603500Y-61069361D01*
X186637714Y-61285376D01*
X186705297Y-61493380D01*
X186705298Y-61493383D01*
X186804595Y-61688260D01*
X186933142Y-61865193D01*
X187087806Y-62019857D01*
X187238969Y-62129682D01*
X187281635Y-62185011D01*
X187287614Y-62254625D01*
X187255009Y-62316420D01*
X187238969Y-62330318D01*
X187087806Y-62440142D01*
X186933142Y-62594806D01*
X186804595Y-62771739D01*
X186705298Y-62966616D01*
X186705297Y-62966619D01*
X186637714Y-63174623D01*
X186603500Y-63390638D01*
X186603500Y-63609361D01*
X186637714Y-63825376D01*
X186705297Y-64033380D01*
X186705298Y-64033383D01*
X186804595Y-64228260D01*
X186933142Y-64405193D01*
X187087806Y-64559857D01*
X187238969Y-64669682D01*
X187281635Y-64725011D01*
X187287614Y-64794625D01*
X187255009Y-64856420D01*
X187238969Y-64870318D01*
X187087806Y-64980142D01*
X186933142Y-65134806D01*
X186804595Y-65311739D01*
X186705298Y-65506616D01*
X186705297Y-65506619D01*
X186637714Y-65714623D01*
X186603500Y-65930638D01*
X186603500Y-66149361D01*
X186637714Y-66365376D01*
X186705297Y-66573380D01*
X186705298Y-66573383D01*
X186804595Y-66768260D01*
X186933142Y-66945193D01*
X187087806Y-67099857D01*
X187253374Y-67220147D01*
X187264743Y-67228407D01*
X187392132Y-67293315D01*
X187459616Y-67327701D01*
X187459619Y-67327702D01*
X187563621Y-67361493D01*
X187667625Y-67395286D01*
X187767672Y-67411132D01*
X187883639Y-67429500D01*
X187883644Y-67429500D01*
X189880361Y-67429500D01*
X189985082Y-67412912D01*
X190096375Y-67395286D01*
X190304383Y-67327701D01*
X190499257Y-67228407D01*
X190598601Y-67156229D01*
X190676193Y-67099857D01*
X190676195Y-67099854D01*
X190676199Y-67099852D01*
X190830852Y-66945199D01*
X190830854Y-66945195D01*
X190830857Y-66945193D01*
X190918359Y-66824755D01*
X190959407Y-66768257D01*
X191058701Y-66573383D01*
X191126286Y-66365375D01*
X191143912Y-66254082D01*
X191160500Y-66149361D01*
X191160500Y-65930638D01*
X191148098Y-65852335D01*
X191126286Y-65714623D01*
X191058702Y-65506619D01*
X191058701Y-65506616D01*
X191018137Y-65427007D01*
X190959407Y-65311743D01*
X190951147Y-65300374D01*
X190830857Y-65134806D01*
X190676199Y-64980148D01*
X190676191Y-64980142D01*
X190525028Y-64870316D01*
X190482364Y-64814989D01*
X190476385Y-64745376D01*
X190508990Y-64683580D01*
X190525023Y-64669686D01*
X190676199Y-64559852D01*
X190830852Y-64405199D01*
X190830854Y-64405195D01*
X190830857Y-64405193D01*
X190887229Y-64327601D01*
X190959407Y-64228257D01*
X191058701Y-64033383D01*
X191126286Y-63825375D01*
X191143912Y-63714082D01*
X191160500Y-63609361D01*
X191160500Y-63390638D01*
X191140595Y-63264971D01*
X191126286Y-63174625D01*
X191058701Y-62966617D01*
X191058701Y-62966616D01*
X191024315Y-62899132D01*
X190959407Y-62771743D01*
X190951147Y-62760374D01*
X190830857Y-62594806D01*
X190676199Y-62440148D01*
X190676191Y-62440142D01*
X190525028Y-62330316D01*
X190482364Y-62274989D01*
X190476385Y-62205376D01*
X190508990Y-62143580D01*
X190525023Y-62129686D01*
X190676199Y-62019852D01*
X190830852Y-61865199D01*
X190830854Y-61865195D01*
X190830857Y-61865193D01*
X190918021Y-61745220D01*
X190959407Y-61688257D01*
X191058701Y-61493383D01*
X191126286Y-61285375D01*
X191143912Y-61174082D01*
X191160500Y-61069361D01*
X191160500Y-60850638D01*
X191140595Y-60724971D01*
X191126286Y-60634625D01*
X191058701Y-60426617D01*
X191058701Y-60426616D01*
X191016722Y-60344229D01*
X190959407Y-60231743D01*
X190929234Y-60190213D01*
X190830857Y-60054806D01*
X190676199Y-59900148D01*
X190676191Y-59900142D01*
X190525028Y-59790316D01*
X190482364Y-59734989D01*
X190476385Y-59665376D01*
X190508990Y-59603580D01*
X190525023Y-59589686D01*
X190676199Y-59479852D01*
X190830852Y-59325199D01*
X190830854Y-59325195D01*
X190830857Y-59325193D01*
X190918021Y-59205220D01*
X190959407Y-59148257D01*
X191058701Y-58953383D01*
X191126286Y-58745375D01*
X191151732Y-58584716D01*
X191160500Y-58529361D01*
X191160500Y-58310638D01*
X191127510Y-58102352D01*
X191126286Y-58094625D01*
X191062285Y-57897648D01*
X219099500Y-57897648D01*
X219099500Y-58102351D01*
X219131522Y-58304534D01*
X219194781Y-58499223D01*
X219238343Y-58584716D01*
X219276875Y-58660340D01*
X219287715Y-58681613D01*
X219408028Y-58847213D01*
X219552786Y-58991971D01*
X219707749Y-59104556D01*
X219718390Y-59112287D01*
X219788985Y-59148257D01*
X219811080Y-59159515D01*
X219861876Y-59207490D01*
X219878671Y-59275311D01*
X219856134Y-59341446D01*
X219811080Y-59380485D01*
X219718386Y-59427715D01*
X219552786Y-59548028D01*
X219408028Y-59692786D01*
X219287715Y-59858386D01*
X219194781Y-60040776D01*
X219131522Y-60235465D01*
X219099500Y-60437648D01*
X219099500Y-60642351D01*
X219131522Y-60844534D01*
X219194781Y-61039223D01*
X219287715Y-61221613D01*
X219408028Y-61387213D01*
X219552786Y-61531971D01*
X219707749Y-61644556D01*
X219718390Y-61652287D01*
X219788985Y-61688257D01*
X219811080Y-61699515D01*
X219861876Y-61747490D01*
X219878671Y-61815311D01*
X219856134Y-61881446D01*
X219811080Y-61920485D01*
X219718386Y-61967715D01*
X219552786Y-62088028D01*
X219408028Y-62232786D01*
X219287715Y-62398386D01*
X219194781Y-62580776D01*
X219131522Y-62775465D01*
X219099500Y-62977648D01*
X219099500Y-63182351D01*
X219131522Y-63384534D01*
X219194781Y-63579223D01*
X219287715Y-63761613D01*
X219408028Y-63927213D01*
X219552786Y-64071971D01*
X219707749Y-64184556D01*
X219718390Y-64192287D01*
X219788985Y-64228257D01*
X219811629Y-64239795D01*
X219862425Y-64287770D01*
X219879220Y-64355591D01*
X219856682Y-64421726D01*
X219811629Y-64460765D01*
X219718650Y-64508140D01*
X219553105Y-64628417D01*
X219553104Y-64628417D01*
X219408417Y-64773104D01*
X219408417Y-64773105D01*
X219288140Y-64938650D01*
X219195244Y-65120970D01*
X219132009Y-65315586D01*
X219123391Y-65370000D01*
X220166988Y-65370000D01*
X220134075Y-65427007D01*
X220100000Y-65554174D01*
X220100000Y-65685826D01*
X220134075Y-65812993D01*
X220166988Y-65870000D01*
X219123391Y-65870000D01*
X219132009Y-65924413D01*
X219195244Y-66119029D01*
X219288140Y-66301349D01*
X219408417Y-66466894D01*
X219408417Y-66466895D01*
X219553104Y-66611582D01*
X219718650Y-66731859D01*
X219900968Y-66824755D01*
X220095582Y-66887990D01*
X220297683Y-66920000D01*
X220350000Y-66920000D01*
X220350000Y-66053012D01*
X220407007Y-66085925D01*
X220534174Y-66120000D01*
X220665826Y-66120000D01*
X220792993Y-66085925D01*
X220850000Y-66053012D01*
X220850000Y-66920000D01*
X220902317Y-66920000D01*
X221104417Y-66887990D01*
X221299031Y-66824755D01*
X221481349Y-66731859D01*
X221646894Y-66611582D01*
X221646895Y-66611582D01*
X221791582Y-66466895D01*
X221791582Y-66466894D01*
X221911859Y-66301349D01*
X222004755Y-66119029D01*
X222067990Y-65924413D01*
X222076609Y-65870000D01*
X221033012Y-65870000D01*
X221065925Y-65812993D01*
X221100000Y-65685826D01*
X221100000Y-65554174D01*
X221065925Y-65427007D01*
X221033012Y-65370000D01*
X222076609Y-65370000D01*
X222067990Y-65315586D01*
X222004755Y-65120970D01*
X221911859Y-64938650D01*
X221791582Y-64773105D01*
X221791582Y-64773104D01*
X221646895Y-64628417D01*
X221481349Y-64508140D01*
X221388370Y-64460765D01*
X221337574Y-64412790D01*
X221320779Y-64344969D01*
X221343316Y-64278835D01*
X221388370Y-64239795D01*
X221481610Y-64192287D01*
X221502770Y-64176913D01*
X221647213Y-64071971D01*
X221647215Y-64071968D01*
X221647219Y-64071966D01*
X221791966Y-63927219D01*
X221791968Y-63927215D01*
X221791971Y-63927213D01*
X221844732Y-63854590D01*
X221912287Y-63761610D01*
X222005220Y-63579219D01*
X222068477Y-63384534D01*
X222100500Y-63182352D01*
X222100500Y-62977648D01*
X222068477Y-62775466D01*
X222067267Y-62771743D01*
X222005218Y-62580776D01*
X221971503Y-62514607D01*
X221912287Y-62398390D01*
X221862831Y-62330319D01*
X221791971Y-62232786D01*
X221647213Y-62088028D01*
X221481614Y-61967715D01*
X221446426Y-61949786D01*
X221388917Y-61920483D01*
X221338123Y-61872511D01*
X221321328Y-61804690D01*
X221343865Y-61738555D01*
X221388917Y-61699516D01*
X221481610Y-61652287D01*
X221502770Y-61636913D01*
X221647213Y-61531971D01*
X221647215Y-61531968D01*
X221647219Y-61531966D01*
X221791966Y-61387219D01*
X221791968Y-61387215D01*
X221791971Y-61387213D01*
X221844732Y-61314590D01*
X221912287Y-61221610D01*
X222005220Y-61039219D01*
X222068477Y-60844534D01*
X222100500Y-60642352D01*
X222100500Y-60437648D01*
X222096879Y-60414784D01*
X222068477Y-60235465D01*
X222005218Y-60040776D01*
X221941105Y-59914949D01*
X221912287Y-59858390D01*
X221862831Y-59790319D01*
X221791971Y-59692786D01*
X221647213Y-59548028D01*
X221481614Y-59427715D01*
X221457217Y-59415284D01*
X221388917Y-59380483D01*
X221338123Y-59332511D01*
X221321328Y-59264690D01*
X221343865Y-59198555D01*
X221388917Y-59159516D01*
X221481610Y-59112287D01*
X221502770Y-59096913D01*
X221647213Y-58991971D01*
X221647215Y-58991968D01*
X221647219Y-58991966D01*
X221791966Y-58847219D01*
X221791968Y-58847215D01*
X221791971Y-58847213D01*
X221844732Y-58774590D01*
X221912287Y-58681610D01*
X222005220Y-58499219D01*
X222068477Y-58304534D01*
X222100500Y-58102352D01*
X222100500Y-57897648D01*
X222068477Y-57695466D01*
X222067267Y-57691743D01*
X222005218Y-57500776D01*
X221971503Y-57434607D01*
X221912287Y-57318390D01*
X221862831Y-57250319D01*
X221791971Y-57152786D01*
X221647213Y-57008028D01*
X221481613Y-56887715D01*
X221481612Y-56887714D01*
X221481610Y-56887713D01*
X221424653Y-56858691D01*
X221299223Y-56794781D01*
X221104534Y-56731522D01*
X220929995Y-56703878D01*
X220902352Y-56699500D01*
X220297648Y-56699500D01*
X220273329Y-56703351D01*
X220095465Y-56731522D01*
X219900776Y-56794781D01*
X219718386Y-56887715D01*
X219552786Y-57008028D01*
X219408028Y-57152786D01*
X219287715Y-57318386D01*
X219194781Y-57500776D01*
X219131522Y-57695465D01*
X219099500Y-57897648D01*
X191062285Y-57897648D01*
X191058701Y-57886617D01*
X191058700Y-57886616D01*
X191058701Y-57886616D01*
X191024315Y-57819132D01*
X190959407Y-57691743D01*
X190933271Y-57655769D01*
X190830857Y-57514806D01*
X190676199Y-57360148D01*
X190676191Y-57360142D01*
X190525028Y-57250316D01*
X190482364Y-57194989D01*
X190476385Y-57125376D01*
X190508990Y-57063580D01*
X190525023Y-57049686D01*
X190676199Y-56939852D01*
X190830852Y-56785199D01*
X190830854Y-56785195D01*
X190830857Y-56785193D01*
X190887229Y-56707601D01*
X190959407Y-56608257D01*
X191058701Y-56413383D01*
X191126286Y-56205375D01*
X191143912Y-56094082D01*
X191160500Y-55989361D01*
X191160500Y-55770638D01*
X191140595Y-55644971D01*
X191126286Y-55554625D01*
X191058701Y-55346617D01*
X191058701Y-55346616D01*
X191024315Y-55279132D01*
X190959407Y-55151743D01*
X190951147Y-55140374D01*
X190830857Y-54974806D01*
X190676199Y-54820148D01*
X190676191Y-54820142D01*
X190525028Y-54710316D01*
X190482364Y-54654989D01*
X190476385Y-54585376D01*
X190508990Y-54523580D01*
X190525023Y-54509686D01*
X190676199Y-54399852D01*
X190830852Y-54245199D01*
X190830854Y-54245195D01*
X190830857Y-54245193D01*
X190887229Y-54167601D01*
X190959407Y-54068257D01*
X191058701Y-53873383D01*
X191126286Y-53665375D01*
X191146764Y-53536081D01*
X191160500Y-53449361D01*
X191160500Y-53230638D01*
X191138224Y-53090000D01*
X191126286Y-53014625D01*
X191078197Y-52866619D01*
X191058702Y-52806619D01*
X191058701Y-52806616D01*
X191024315Y-52739132D01*
X190959407Y-52611743D01*
X190951147Y-52600374D01*
X190830857Y-52434806D01*
X190676199Y-52280148D01*
X190676191Y-52280142D01*
X190525028Y-52170316D01*
X190482364Y-52114989D01*
X190476385Y-52045376D01*
X190508990Y-51983580D01*
X190525023Y-51969686D01*
X190676199Y-51859852D01*
X190830852Y-51705199D01*
X190830854Y-51705195D01*
X190830857Y-51705193D01*
X190887229Y-51627601D01*
X190959407Y-51528257D01*
X191058701Y-51333383D01*
X191126286Y-51125375D01*
X191143912Y-51014082D01*
X191160500Y-50909361D01*
X191160500Y-50690638D01*
X191140595Y-50564971D01*
X191126286Y-50474625D01*
X191058701Y-50266617D01*
X191058701Y-50266616D01*
X191024315Y-50199132D01*
X190959407Y-50071743D01*
X190951147Y-50060374D01*
X190830857Y-49894806D01*
X190676193Y-49740142D01*
X190499260Y-49611595D01*
X190499259Y-49611594D01*
X190499257Y-49611593D01*
X190436825Y-49579782D01*
X190304383Y-49512298D01*
X190304380Y-49512297D01*
X190096376Y-49444714D01*
X189880361Y-49410500D01*
X189880356Y-49410500D01*
X187883644Y-49410500D01*
X187883639Y-49410500D01*
X187667623Y-49444714D01*
X187459619Y-49512297D01*
X187459616Y-49512298D01*
X187264739Y-49611595D01*
X187087806Y-49740142D01*
X186933142Y-49894806D01*
X186804595Y-50071739D01*
X186705298Y-50266616D01*
X186705297Y-50266619D01*
X186637714Y-50474623D01*
X186603500Y-50690638D01*
X174396500Y-50690638D01*
X174376595Y-50564971D01*
X174362286Y-50474625D01*
X174294701Y-50266617D01*
X174294701Y-50266616D01*
X174260315Y-50199132D01*
X174195407Y-50071743D01*
X174187147Y-50060374D01*
X174066857Y-49894806D01*
X173912193Y-49740142D01*
X173735260Y-49611595D01*
X173735259Y-49611594D01*
X173735257Y-49611593D01*
X173672825Y-49579782D01*
X173540383Y-49512298D01*
X173540380Y-49512297D01*
X173332376Y-49444714D01*
X173116361Y-49410500D01*
X173116356Y-49410500D01*
X171119644Y-49410500D01*
X171119639Y-49410500D01*
X170903623Y-49444714D01*
X170695619Y-49512297D01*
X170695616Y-49512298D01*
X170500739Y-49611595D01*
X170323806Y-49740142D01*
X170169142Y-49894806D01*
X170040595Y-50071739D01*
X169941298Y-50266616D01*
X169941297Y-50266619D01*
X169873714Y-50474623D01*
X169839500Y-50690638D01*
X136500500Y-50690638D01*
X136500500Y-47506961D01*
X136501280Y-47493077D01*
X136501280Y-47493076D01*
X136511460Y-47402729D01*
X136517635Y-47375670D01*
X136545353Y-47296456D01*
X136557396Y-47271450D01*
X136602046Y-47200389D01*
X136619351Y-47178690D01*
X136678690Y-47119351D01*
X136700389Y-47102046D01*
X136771450Y-47057396D01*
X136796456Y-47045353D01*
X136875670Y-47017635D01*
X136902733Y-47011459D01*
X136965419Y-47004396D01*
X136993079Y-47001280D01*
X137006962Y-47000500D01*
X137065892Y-47000500D01*
X225934108Y-47000500D01*
X225993038Y-47000500D01*
X226006922Y-47001280D01*
G37*
%TD.AperFunction*%
%TD*%
M02*
