%TF.GenerationSoftware,KiCad,Pcbnew,9.0.6*%
%TF.CreationDate,2026-02-02T20:02:42-08:00*%
%TF.ProjectId,Display Device,44697370-6c61-4792-9044-65766963652e,rev?*%
%TF.SameCoordinates,Original*%
%TF.FileFunction,Soldermask,Top*%
%TF.FilePolarity,Negative*%
%FSLAX46Y46*%
G04 Gerber Fmt 4.6, Leading zero omitted, Abs format (unit mm)*
G04 Created by KiCad (PCBNEW 9.0.6) date 2026-02-02 20:02:42*
%MOMM*%
%LPD*%
G01*
G04 APERTURE LIST*
G04 Aperture macros list*
%AMRoundRect*
0 Rectangle with rounded corners*
0 $1 Rounding radius*
0 $2 $3 $4 $5 $6 $7 $8 $9 X,Y pos of 4 corners*
0 Add a 4 corners polygon primitive as box body*
4,1,4,$2,$3,$4,$5,$6,$7,$8,$9,$2,$3,0*
0 Add four circle primitives for the rounded corners*
1,1,$1+$1,$2,$3*
1,1,$1+$1,$4,$5*
1,1,$1+$1,$6,$7*
1,1,$1+$1,$8,$9*
0 Add four rect primitives between the rounded corners*
20,1,$1+$1,$2,$3,$4,$5,0*
20,1,$1+$1,$4,$5,$6,$7,0*
20,1,$1+$1,$6,$7,$8,$9,0*
20,1,$1+$1,$8,$9,$2,$3,0*%
G04 Aperture macros list end*
%ADD10RoundRect,0.250000X-0.350000X-0.450000X0.350000X-0.450000X0.350000X0.450000X-0.350000X0.450000X0*%
%ADD11RoundRect,0.250000X0.350000X0.450000X-0.350000X0.450000X-0.350000X-0.450000X0.350000X-0.450000X0*%
%ADD12RoundRect,0.250000X0.325000X0.450000X-0.325000X0.450000X-0.325000X-0.450000X0.325000X-0.450000X0*%
%ADD13RoundRect,0.250000X-0.325000X-0.450000X0.325000X-0.450000X0.325000X0.450000X-0.325000X0.450000X0*%
%ADD14O,2.000000X1.600000*%
%ADD15R,1.700000X1.700000*%
%ADD16C,1.700000*%
%ADD17R,2.000000X2.000000*%
%ADD18C,2.000000*%
%ADD19R,3.200000X2.000000*%
%ADD20O,3.556000X1.778000*%
%ADD21C,1.905000*%
G04 APERTURE END LIST*
D10*
%TO.C,R2*%
X195950000Y-80000000D03*
X197950000Y-80000000D03*
%TD*%
D11*
%TO.C,R1*%
X213455000Y-80000000D03*
X211455000Y-80000000D03*
%TD*%
D12*
%TO.C,D2*%
X213525000Y-84000000D03*
X211475000Y-84000000D03*
%TD*%
D13*
%TO.C,D3*%
X195925000Y-84000000D03*
X197975000Y-84000000D03*
%TD*%
D14*
%TO.C,Brd1*%
X220600000Y-65620000D03*
X220600000Y-63080000D03*
X220600000Y-60540000D03*
X220600000Y-58000000D03*
%TD*%
D15*
%TO.C,BT1*%
X220000000Y-82500000D03*
D16*
X220000000Y-79960000D03*
%TD*%
D17*
%TO.C,SW2*%
X188000000Y-85000000D03*
D18*
X188000000Y-90000000D03*
X188000000Y-87500000D03*
D19*
X180500000Y-93100000D03*
X180500000Y-81900000D03*
D18*
X173500000Y-90000000D03*
X173500000Y-85000000D03*
%TD*%
D15*
%TO.C,SW1*%
X220000000Y-89000000D03*
D16*
X217460000Y-89000000D03*
X214920000Y-89000000D03*
%TD*%
D15*
%TO.C,D1*%
X183540000Y-72000000D03*
D16*
X181000000Y-72000000D03*
X178460000Y-72000000D03*
X175920000Y-72000000D03*
%TD*%
%TO.C,M1*%
X156810000Y-61070000D03*
X149190000Y-61070000D03*
X149190000Y-83930000D03*
X156810000Y-83930000D03*
%TD*%
D15*
%TO.C,SW3*%
X206000000Y-81500000D03*
D16*
X203460000Y-81500000D03*
%TD*%
D20*
%TO.C,U2*%
X188882000Y-50800000D03*
X188882000Y-53340000D03*
X188882000Y-55880000D03*
X188882000Y-58420000D03*
X188882000Y-60960000D03*
X188882000Y-63500000D03*
X188882000Y-66040000D03*
X172118000Y-66040000D03*
X172118000Y-63500000D03*
X172118000Y-60960000D03*
X172118000Y-58420000D03*
X172118000Y-55880000D03*
X172118000Y-53340000D03*
X172118000Y-50800000D03*
D21*
X183040000Y-76200000D03*
X177960000Y-76200000D03*
%TD*%
M02*
