%TF.GenerationSoftware,KiCad,Pcbnew,9.0.6*%
%TF.CreationDate,2026-02-02T20:02:42-08:00*%
%TF.ProjectId,Display Device,44697370-6c61-4792-9044-65766963652e,rev?*%
%TF.SameCoordinates,Original*%
%TF.FileFunction,Copper,L1,Top*%
%TF.FilePolarity,Positive*%
%FSLAX46Y46*%
G04 Gerber Fmt 4.6, Leading zero omitted, Abs format (unit mm)*
G04 Created by KiCad (PCBNEW 9.0.6) date 2026-02-02 20:02:42*
%MOMM*%
%LPD*%
G01*
G04 APERTURE LIST*
G04 Aperture macros list*
%AMRoundRect*
0 Rectangle with rounded corners*
0 $1 Rounding radius*
0 $2 $3 $4 $5 $6 $7 $8 $9 X,Y pos of 4 corners*
0 Add a 4 corners polygon primitive as box body*
4,1,4,$2,$3,$4,$5,$6,$7,$8,$9,$2,$3,0*
0 Add four circle primitives for the rounded corners*
1,1,$1+$1,$2,$3*
1,1,$1+$1,$4,$5*
1,1,$1+$1,$6,$7*
1,1,$1+$1,$8,$9*
0 Add four rect primitives between the rounded corners*
20,1,$1+$1,$2,$3,$4,$5,0*
20,1,$1+$1,$4,$5,$6,$7,0*
20,1,$1+$1,$6,$7,$8,$9,0*
20,1,$1+$1,$8,$9,$2,$3,0*%
G04 Aperture macros list end*
%TA.AperFunction,SMDPad,CuDef*%
%ADD10RoundRect,0.250000X-0.350000X-0.450000X0.350000X-0.450000X0.350000X0.450000X-0.350000X0.450000X0*%
%TD*%
%TA.AperFunction,SMDPad,CuDef*%
%ADD11RoundRect,0.250000X0.350000X0.450000X-0.350000X0.450000X-0.350000X-0.450000X0.350000X-0.450000X0*%
%TD*%
%TA.AperFunction,SMDPad,CuDef*%
%ADD12RoundRect,0.250000X0.325000X0.450000X-0.325000X0.450000X-0.325000X-0.450000X0.325000X-0.450000X0*%
%TD*%
%TA.AperFunction,SMDPad,CuDef*%
%ADD13RoundRect,0.250000X-0.325000X-0.450000X0.325000X-0.450000X0.325000X0.450000X-0.325000X0.450000X0*%
%TD*%
%TA.AperFunction,ComponentPad*%
%ADD14O,2.000000X1.600000*%
%TD*%
%TA.AperFunction,ComponentPad*%
%ADD15R,1.700000X1.700000*%
%TD*%
%TA.AperFunction,ComponentPad*%
%ADD16C,1.700000*%
%TD*%
%TA.AperFunction,ComponentPad*%
%ADD17R,2.000000X2.000000*%
%TD*%
%TA.AperFunction,ComponentPad*%
%ADD18C,2.000000*%
%TD*%
%TA.AperFunction,ComponentPad*%
%ADD19R,3.200000X2.000000*%
%TD*%
%TA.AperFunction,ComponentPad*%
%ADD20O,3.556000X1.778000*%
%TD*%
%TA.AperFunction,ComponentPad*%
%ADD21C,1.905000*%
%TD*%
%TA.AperFunction,Conductor*%
%ADD22C,0.254000*%
%TD*%
%TA.AperFunction,Conductor*%
%ADD23C,0.500000*%
%TD*%
G04 APERTURE END LIST*
D10*
%TO.P,R2,1*%
%TO.N,Net-(D3-A)*%
X195950000Y-80000000D03*
%TO.P,R2,2*%
%TO.N,Net-(SW3-A)*%
X197950000Y-80000000D03*
%TD*%
D11*
%TO.P,R1,1*%
%TO.N,Net-(D2-K)*%
X213455000Y-80000000D03*
%TO.P,R1,2*%
%TO.N,GND*%
X211455000Y-80000000D03*
%TD*%
D12*
%TO.P,D2,1,K*%
%TO.N,Net-(D2-K)*%
X213525000Y-84000000D03*
%TO.P,D2,2,A*%
%TO.N,/VCC*%
X211475000Y-84000000D03*
%TD*%
D13*
%TO.P,D3,1,K*%
%TO.N,GND*%
X195925000Y-84000000D03*
%TO.P,D3,2,A*%
%TO.N,Net-(D3-A)*%
X197975000Y-84000000D03*
%TD*%
D14*
%TO.P,Brd1,1,GND*%
%TO.N,GND*%
X220600000Y-65620000D03*
%TO.P,Brd1,2,VCC*%
%TO.N,+3.3V*%
X220600000Y-63080000D03*
%TO.P,Brd1,3,SCL*%
%TO.N,Net-(Brd1-SCL)*%
X220600000Y-60540000D03*
%TO.P,Brd1,4,SDA*%
%TO.N,Net-(Brd1-SDA)*%
X220600000Y-58000000D03*
%TD*%
D15*
%TO.P,BT1,1,+*%
%TO.N,/BAT*%
X220000000Y-82500000D03*
D16*
%TO.P,BT1,2,-*%
%TO.N,GND*%
X220000000Y-79960000D03*
%TD*%
D17*
%TO.P,SW2,A,A*%
%TO.N,Net-(U2-GPIO8_A9_D9_CIPO)*%
X188000000Y-85000000D03*
D18*
%TO.P,SW2,B,B*%
%TO.N,Net-(U2-GPIO7_A8_D8_SCK)*%
X188000000Y-90000000D03*
%TO.P,SW2,C,C*%
%TO.N,GND*%
X188000000Y-87500000D03*
D19*
%TO.P,SW2,MP*%
%TO.N,N/C*%
X180500000Y-93100000D03*
X180500000Y-81900000D03*
D18*
%TO.P,SW2,S1,S1*%
%TO.N,GND*%
X173500000Y-90000000D03*
%TO.P,SW2,S2,S2*%
%TO.N,Net-(U2-GPIO44_D7_RX)*%
X173500000Y-85000000D03*
%TD*%
D15*
%TO.P,SW1,1,A*%
%TO.N,unconnected-(SW1-A-Pad1)*%
X220000000Y-89000000D03*
D16*
%TO.P,SW1,2,B*%
%TO.N,/BAT*%
X217460000Y-89000000D03*
%TO.P,SW1,3,C*%
%TO.N,/VCC*%
X214920000Y-89000000D03*
%TD*%
D15*
%TO.P,D1,1,DOUT*%
%TO.N,unconnected-(D1-DOUT-Pad1)*%
X183540000Y-72000000D03*
D16*
%TO.P,D1,2,GND*%
%TO.N,GND*%
X181000000Y-72000000D03*
%TO.P,D1,3,VDD*%
%TO.N,+3.3V*%
X178460000Y-72000000D03*
%TO.P,D1,4,DIN*%
%TO.N,Net-(D1-DIN)*%
X175920000Y-72000000D03*
%TD*%
%TO.P,M1,1*%
%TO.N,Net-(U2-GPIO2_A1_D1)*%
X156810000Y-61070000D03*
%TO.P,M1,2,-*%
%TO.N,Net-(M1--)*%
X149190000Y-61070000D03*
%TO.P,M1,3*%
%TO.N,Net-(U2-GPIO3_A2_D2)*%
X149190000Y-83930000D03*
%TO.P,M1,4*%
%TO.N,Net-(U2-GPIO4_A3_D3)*%
X156810000Y-83930000D03*
%TD*%
D15*
%TO.P,SW3,1,A*%
%TO.N,Net-(SW3-A)*%
X206000000Y-81500000D03*
D16*
%TO.P,SW3,2,B*%
%TO.N,Net-(SW3-B)*%
X203460000Y-81500000D03*
%TD*%
D20*
%TO.P,U2,1,GPIO1_A0_D0*%
%TO.N,Net-(M1--)*%
X188882000Y-50800000D03*
%TO.P,U2,2,GPIO2_A1_D1*%
%TO.N,Net-(U2-GPIO2_A1_D1)*%
X188882000Y-53340000D03*
%TO.P,U2,3,GPIO3_A2_D2*%
%TO.N,Net-(U2-GPIO3_A2_D2)*%
X188882000Y-55880000D03*
%TO.P,U2,4,GPIO4_A3_D3*%
%TO.N,Net-(U2-GPIO4_A3_D3)*%
X188882000Y-58420000D03*
%TO.P,U2,5,GPIO4_A3_D3_SDA*%
%TO.N,Net-(Brd1-SDA)*%
X188882000Y-60960000D03*
%TO.P,U2,6,GPIO6_A5_D5_SCL*%
%TO.N,Net-(Brd1-SCL)*%
X188882000Y-63500000D03*
%TO.P,U2,7,GPIO43_TX_D6*%
%TO.N,Net-(SW3-B)*%
X188882000Y-66040000D03*
%TO.P,U2,8,GPIO44_D7_RX*%
%TO.N,Net-(U2-GPIO44_D7_RX)*%
X172118000Y-66040000D03*
%TO.P,U2,9,GPIO7_A8_D8_SCK*%
%TO.N,Net-(U2-GPIO7_A8_D8_SCK)*%
X172118000Y-63500000D03*
%TO.P,U2,10,GPIO8_A9_D9_CIPO*%
%TO.N,Net-(U2-GPIO8_A9_D9_CIPO)*%
X172118000Y-60960000D03*
%TO.P,U2,11,GPIO9_A10_D10_COPI*%
%TO.N,Net-(D1-DIN)*%
X172118000Y-58420000D03*
%TO.P,U2,12,3V3*%
%TO.N,+3.3V*%
X172118000Y-55880000D03*
%TO.P,U2,13,GND*%
%TO.N,GND*%
X172118000Y-53340000D03*
%TO.P,U2,14,5V*%
%TO.N,/VCC*%
X172118000Y-50800000D03*
D21*
%TO.P,U2,15,+BATT*%
%TO.N,unconnected-(U2-+BATT-Pad15)*%
X183040000Y-76200000D03*
%TO.P,U2,16,-BATT*%
%TO.N,unconnected-(U2--BATT-Pad16)*%
X177960000Y-76200000D03*
%TD*%
D22*
%TO.N,Net-(Brd1-SDA)*%
X217640000Y-60960000D02*
X220600000Y-58000000D01*
X188120000Y-60960000D02*
X217640000Y-60960000D01*
D23*
%TO.N,GND*%
X184895000Y-72970000D02*
X184895000Y-65355000D01*
X220000000Y-66220000D02*
X220600000Y-65620000D01*
X195925000Y-84000000D02*
X184895000Y-72970000D01*
X184895000Y-65355000D02*
X172880000Y-53340000D01*
%TO.N,+3.3V*%
X194850000Y-85205000D02*
X183000000Y-73355000D01*
X205005000Y-85205000D02*
X194850000Y-85205000D01*
X220600000Y-63080000D02*
X207355000Y-76325000D01*
X207355000Y-82855000D02*
X205005000Y-85205000D01*
X178460000Y-61460000D02*
X178460000Y-72000000D01*
X183000000Y-73355000D02*
X179815000Y-73355000D01*
X179815000Y-73355000D02*
X178460000Y-72000000D01*
X172880000Y-55880000D02*
X178460000Y-61460000D01*
X207355000Y-76325000D02*
X207355000Y-82855000D01*
D22*
%TO.N,Net-(Brd1-SCL)*%
X217640000Y-63500000D02*
X220600000Y-60540000D01*
X188120000Y-63500000D02*
X217640000Y-63500000D01*
%TO.N,Net-(D3-A)*%
X195950000Y-80000000D02*
X195950000Y-81975000D01*
X195950000Y-81975000D02*
X197975000Y-84000000D01*
%TO.N,Net-(M1--)*%
X186311000Y-48991000D02*
X188120000Y-50800000D01*
X160066919Y-48991000D02*
X186311000Y-48991000D01*
X149190000Y-61070000D02*
X149190000Y-59867919D01*
X149190000Y-59867919D02*
X160066919Y-48991000D01*
%TO.N,Net-(SW3-B)*%
X188120000Y-66160000D02*
X203460000Y-81500000D01*
X188120000Y-66040000D02*
X188120000Y-66160000D01*
%TO.N,Net-(SW3-A)*%
X200682000Y-82732000D02*
X204768000Y-82732000D01*
X197950000Y-80000000D02*
X200682000Y-82732000D01*
X204768000Y-82732000D02*
X206000000Y-81500000D01*
%TO.N,Net-(D1-DIN)*%
X175000000Y-60540000D02*
X175000000Y-71080000D01*
X172880000Y-58420000D02*
X175000000Y-60540000D01*
X175000000Y-71080000D02*
X175920000Y-72000000D01*
%TO.N,Net-(D2-K)*%
X213455000Y-83930000D02*
X213525000Y-84000000D01*
X213455000Y-80000000D02*
X213455000Y-83930000D01*
%TO.N,Net-(U2-GPIO2_A1_D1)*%
X184280000Y-49500000D02*
X188120000Y-53340000D01*
X168380000Y-49500000D02*
X184280000Y-49500000D01*
X156810000Y-61070000D02*
X168380000Y-49500000D01*
%TO.N,Net-(U2-GPIO3_A2_D2)*%
X189028465Y-55880000D02*
X188120000Y-55880000D01*
X149190000Y-83930000D02*
X147958000Y-82698000D01*
X147958000Y-82698000D02*
X147958000Y-60380084D01*
X191042000Y-53866465D02*
X189028465Y-55880000D01*
X159856085Y-48482000D02*
X189250465Y-48482000D01*
X147958000Y-60380084D02*
X159856085Y-48482000D01*
X191042000Y-50273535D02*
X191042000Y-53866465D01*
X189250465Y-48482000D02*
X191042000Y-50273535D01*
%TO.N,Net-(U2-GPIO4_A3_D3)*%
X147449000Y-60051000D02*
X159527000Y-47973000D01*
X189028465Y-58420000D02*
X188120000Y-58420000D01*
X189461300Y-47973000D02*
X191551000Y-50062701D01*
X191551000Y-50062701D02*
X191551000Y-55897465D01*
X191551000Y-55897465D02*
X189028465Y-58420000D01*
X147449000Y-83931312D02*
X147449000Y-60051000D01*
X156810000Y-83930000D02*
X150932312Y-83930000D01*
X148679688Y-85162000D02*
X147449000Y-83931312D01*
X159527000Y-47973000D02*
X189461300Y-47973000D01*
X149700312Y-85162000D02*
X148679688Y-85162000D01*
X150932312Y-83930000D02*
X149700312Y-85162000D01*
%TO.N,Net-(U2-GPIO7_A8_D8_SCK)*%
X172927556Y-91382000D02*
X169958000Y-88412444D01*
X186618000Y-91382000D02*
X172927556Y-91382000D01*
X188000000Y-90000000D02*
X186618000Y-91382000D01*
X169958000Y-65513535D02*
X171971535Y-63500000D01*
X169958000Y-88412444D02*
X169958000Y-65513535D01*
X171971535Y-63500000D02*
X172880000Y-63500000D01*
%TO.N,Net-(U2-GPIO44_D7_RX)*%
X173500000Y-85000000D02*
X173500000Y-66660000D01*
X173500000Y-66660000D02*
X172880000Y-66040000D01*
%TO.N,Net-(U2-GPIO8_A9_D9_CIPO)*%
X175454444Y-85000000D02*
X174278000Y-83823556D01*
X174278000Y-62358000D02*
X172880000Y-60960000D01*
X188000000Y-85000000D02*
X175454444Y-85000000D01*
X174278000Y-83823556D02*
X174278000Y-62358000D01*
D23*
%TO.N,/BAT*%
X220000000Y-86460000D02*
X220000000Y-82500000D01*
X217460000Y-89000000D02*
X220000000Y-86460000D01*
%TO.N,/VCC*%
X169326000Y-53271586D02*
X171797586Y-50800000D01*
X175256774Y-94605000D02*
X169326000Y-88674226D01*
X169326000Y-88674226D02*
X169326000Y-53271586D01*
X211475000Y-84000000D02*
X200870000Y-94605000D01*
X171797586Y-50800000D02*
X172880000Y-50800000D01*
X211475000Y-85555000D02*
X214920000Y-89000000D01*
X211475000Y-84000000D02*
X211475000Y-85555000D01*
X200870000Y-94605000D02*
X175256774Y-94605000D01*
%TD*%
%TA.AperFunction,Conductor*%
%TO.N,GND*%
G36*
X170747818Y-67344662D02*
G01*
X170780190Y-67355180D01*
X170903625Y-67395286D01*
X171003672Y-67411132D01*
X171119639Y-67429500D01*
X171119644Y-67429500D01*
X172748500Y-67429500D01*
X172815539Y-67449185D01*
X172861294Y-67501989D01*
X172872500Y-67553500D01*
X172872500Y-83559688D01*
X172852815Y-83626727D01*
X172804796Y-83670172D01*
X172713569Y-83716655D01*
X172657126Y-83757664D01*
X172522490Y-83855483D01*
X172522488Y-83855485D01*
X172522487Y-83855485D01*
X172355485Y-84022487D01*
X172355485Y-84022488D01*
X172355483Y-84022490D01*
X172345460Y-84036286D01*
X172216657Y-84213566D01*
X172109433Y-84424003D01*
X172036446Y-84648631D01*
X171999500Y-84881902D01*
X171999500Y-85118097D01*
X172036446Y-85351368D01*
X172109433Y-85575996D01*
X172213561Y-85780356D01*
X172216657Y-85786433D01*
X172355483Y-85977510D01*
X172522490Y-86144517D01*
X172713567Y-86283343D01*
X172812991Y-86334002D01*
X172924003Y-86390566D01*
X172924005Y-86390566D01*
X172924008Y-86390568D01*
X173000076Y-86415284D01*
X173148631Y-86463553D01*
X173381903Y-86500500D01*
X173381908Y-86500500D01*
X173618097Y-86500500D01*
X173851368Y-86463553D01*
X173906455Y-86445654D01*
X174075992Y-86390568D01*
X174286433Y-86283343D01*
X174477510Y-86144517D01*
X174644517Y-85977510D01*
X174783343Y-85786433D01*
X174890568Y-85575992D01*
X174892826Y-85569040D01*
X174932262Y-85511367D01*
X174996620Y-85484167D01*
X175065467Y-85496081D01*
X175079646Y-85504256D01*
X175157211Y-85556083D01*
X175157213Y-85556084D01*
X175157217Y-85556086D01*
X175271404Y-85603383D01*
X175271409Y-85603385D01*
X175271413Y-85603385D01*
X175271414Y-85603386D01*
X175392638Y-85627500D01*
X175392641Y-85627500D01*
X186375501Y-85627500D01*
X186442540Y-85647185D01*
X186488295Y-85699989D01*
X186499501Y-85751500D01*
X186499501Y-86047876D01*
X186505908Y-86107483D01*
X186556202Y-86242328D01*
X186556206Y-86242335D01*
X186642452Y-86357544D01*
X186642453Y-86357544D01*
X186642454Y-86357546D01*
X186686563Y-86390566D01*
X186760599Y-86445990D01*
X186802469Y-86501924D01*
X186807453Y-86571615D01*
X186786605Y-86618141D01*
X186717087Y-86713824D01*
X186609897Y-86924197D01*
X186536934Y-87148752D01*
X186500000Y-87381947D01*
X186500000Y-87618052D01*
X186536934Y-87851247D01*
X186609897Y-88075802D01*
X186717087Y-88286174D01*
X186777338Y-88369104D01*
X186777340Y-88369105D01*
X187517037Y-87629408D01*
X187534075Y-87692993D01*
X187599901Y-87807007D01*
X187692993Y-87900099D01*
X187807007Y-87965925D01*
X187870590Y-87982962D01*
X187124280Y-88729271D01*
X187115105Y-88772947D01*
X187078739Y-88814615D01*
X187022490Y-88855482D01*
X186855485Y-89022487D01*
X186855485Y-89022488D01*
X186855483Y-89022490D01*
X186795862Y-89104550D01*
X186716657Y-89213566D01*
X186609433Y-89424003D01*
X186536446Y-89648631D01*
X186499500Y-89881902D01*
X186499500Y-90118097D01*
X186536447Y-90351369D01*
X186536447Y-90351372D01*
X186568086Y-90448744D01*
X186568520Y-90463955D01*
X186573839Y-90478215D01*
X186569497Y-90498171D01*
X186570081Y-90518585D01*
X186561993Y-90532670D01*
X186558988Y-90546488D01*
X186537836Y-90574743D01*
X186394398Y-90718182D01*
X186333078Y-90751666D01*
X186306719Y-90754500D01*
X175001402Y-90754500D01*
X174934363Y-90734815D01*
X174888608Y-90682011D01*
X174878664Y-90612853D01*
X174888895Y-90580581D01*
X174888237Y-90580309D01*
X174890101Y-90575806D01*
X174963065Y-90351247D01*
X175000000Y-90118052D01*
X175000000Y-89881947D01*
X174963065Y-89648752D01*
X174890102Y-89424197D01*
X174782914Y-89213828D01*
X174722658Y-89130894D01*
X174722658Y-89130893D01*
X173982962Y-89870589D01*
X173965925Y-89807007D01*
X173900099Y-89692993D01*
X173807007Y-89599901D01*
X173692993Y-89534075D01*
X173629409Y-89517037D01*
X174369105Y-88777340D01*
X174369104Y-88777338D01*
X174286174Y-88717087D01*
X174075802Y-88609897D01*
X173851247Y-88536934D01*
X173851248Y-88536934D01*
X173618052Y-88500000D01*
X173381948Y-88500000D01*
X173148752Y-88536934D01*
X172924197Y-88609897D01*
X172713830Y-88717084D01*
X172630894Y-88777340D01*
X173370591Y-89517037D01*
X173307007Y-89534075D01*
X173192993Y-89599901D01*
X173099901Y-89692993D01*
X173034075Y-89807007D01*
X173017037Y-89870591D01*
X172277340Y-89130894D01*
X172217084Y-89213830D01*
X172109894Y-89424201D01*
X172108035Y-89428693D01*
X172106625Y-89428109D01*
X172070971Y-89480206D01*
X172006601Y-89507378D01*
X171937760Y-89495435D01*
X171904836Y-89471861D01*
X170621819Y-88188844D01*
X170588334Y-88127521D01*
X170585500Y-88101163D01*
X170585500Y-67462593D01*
X170605185Y-67395554D01*
X170657989Y-67349799D01*
X170727147Y-67339855D01*
X170747818Y-67344662D01*
G37*
%TD.AperFunction*%
%TA.AperFunction,Conductor*%
G36*
X184035758Y-50147185D02*
G01*
X184056400Y-50163819D01*
X186650071Y-52757490D01*
X186683556Y-52818813D01*
X186680321Y-52883488D01*
X186637714Y-53014621D01*
X186603500Y-53230638D01*
X186603500Y-53449361D01*
X186637714Y-53665376D01*
X186705297Y-53873380D01*
X186705298Y-53873383D01*
X186772782Y-54005825D01*
X186804461Y-54067998D01*
X186804595Y-54068260D01*
X186933142Y-54245193D01*
X187087806Y-54399857D01*
X187238969Y-54509682D01*
X187281635Y-54565011D01*
X187287614Y-54634625D01*
X187255009Y-54696420D01*
X187238969Y-54710318D01*
X187087806Y-54820142D01*
X186933142Y-54974806D01*
X186804595Y-55151739D01*
X186705298Y-55346616D01*
X186705297Y-55346619D01*
X186637714Y-55554623D01*
X186603500Y-55770638D01*
X186603500Y-55989361D01*
X186637714Y-56205376D01*
X186705297Y-56413380D01*
X186705298Y-56413383D01*
X186804595Y-56608260D01*
X186933142Y-56785193D01*
X187087806Y-56939857D01*
X187238969Y-57049682D01*
X187281635Y-57105011D01*
X187287614Y-57174625D01*
X187255009Y-57236420D01*
X187238969Y-57250318D01*
X187087806Y-57360142D01*
X186933142Y-57514806D01*
X186804595Y-57691739D01*
X186705298Y-57886616D01*
X186705297Y-57886619D01*
X186637714Y-58094623D01*
X186603500Y-58310638D01*
X186603500Y-58529361D01*
X186637714Y-58745376D01*
X186705297Y-58953380D01*
X186705298Y-58953383D01*
X186804595Y-59148260D01*
X186933142Y-59325193D01*
X187087806Y-59479857D01*
X187238969Y-59589682D01*
X187281635Y-59645011D01*
X187287614Y-59714625D01*
X187255009Y-59776420D01*
X187238969Y-59790318D01*
X187087806Y-59900142D01*
X186933142Y-60054806D01*
X186804595Y-60231739D01*
X186705298Y-60426616D01*
X186705297Y-60426619D01*
X186637714Y-60634623D01*
X186603500Y-60850638D01*
X186603500Y-61069361D01*
X186637714Y-61285376D01*
X186705297Y-61493380D01*
X186705298Y-61493383D01*
X186804595Y-61688260D01*
X186933142Y-61865193D01*
X187087806Y-62019857D01*
X187238969Y-62129682D01*
X187281635Y-62185011D01*
X187287614Y-62254625D01*
X187255009Y-62316420D01*
X187238969Y-62330318D01*
X187087806Y-62440142D01*
X186933142Y-62594806D01*
X186804595Y-62771739D01*
X186705298Y-62966616D01*
X186705297Y-62966619D01*
X186637714Y-63174623D01*
X186603500Y-63390638D01*
X186603500Y-63609361D01*
X186637714Y-63825376D01*
X186705297Y-64033380D01*
X186705298Y-64033383D01*
X186804595Y-64228260D01*
X186933142Y-64405193D01*
X187087806Y-64559857D01*
X187238969Y-64669682D01*
X187281635Y-64725011D01*
X187287614Y-64794625D01*
X187255009Y-64856420D01*
X187238969Y-64870318D01*
X187087806Y-64980142D01*
X186933142Y-65134806D01*
X186804595Y-65311739D01*
X186705298Y-65506616D01*
X186705297Y-65506619D01*
X186637714Y-65714623D01*
X186603500Y-65930638D01*
X186603500Y-66149361D01*
X186637714Y-66365376D01*
X186705297Y-66573380D01*
X186705298Y-66573383D01*
X186804595Y-66768260D01*
X186933142Y-66945193D01*
X187087806Y-67099857D01*
X187253374Y-67220147D01*
X187264743Y-67228407D01*
X187349500Y-67271593D01*
X187459616Y-67327701D01*
X187459619Y-67327702D01*
X187557178Y-67359400D01*
X187667625Y-67395286D01*
X187767672Y-67411132D01*
X187883639Y-67429500D01*
X187883644Y-67429500D01*
X188450719Y-67429500D01*
X188517758Y-67449185D01*
X188538400Y-67465819D01*
X202116877Y-81044296D01*
X202150362Y-81105619D01*
X202147128Y-81170293D01*
X202142754Y-81183755D01*
X202134350Y-81236818D01*
X202109500Y-81393713D01*
X202109500Y-81606287D01*
X202142754Y-81816243D01*
X202183675Y-81942184D01*
X202185670Y-82012023D01*
X202149590Y-82071856D01*
X202086889Y-82102684D01*
X202065744Y-82104500D01*
X200993282Y-82104500D01*
X200926243Y-82084815D01*
X200905601Y-82068181D01*
X199086818Y-80249398D01*
X199053333Y-80188075D01*
X199050499Y-80161717D01*
X199050499Y-79499998D01*
X199050498Y-79499981D01*
X199039999Y-79397203D01*
X199039998Y-79397200D01*
X198992032Y-79252449D01*
X198984814Y-79230666D01*
X198892712Y-79081344D01*
X198768656Y-78957288D01*
X198619334Y-78865186D01*
X198452797Y-78810001D01*
X198452795Y-78810000D01*
X198350010Y-78799500D01*
X197549998Y-78799500D01*
X197549980Y-78799501D01*
X197447203Y-78810000D01*
X197447200Y-78810001D01*
X197280668Y-78865185D01*
X197280663Y-78865187D01*
X197131342Y-78957289D01*
X197037681Y-79050951D01*
X196976358Y-79084436D01*
X196906666Y-79079452D01*
X196862319Y-79050951D01*
X196768657Y-78957289D01*
X196768656Y-78957288D01*
X196619334Y-78865186D01*
X196452797Y-78810001D01*
X196452795Y-78810000D01*
X196350010Y-78799500D01*
X195549998Y-78799500D01*
X195549980Y-78799501D01*
X195447203Y-78810000D01*
X195447200Y-78810001D01*
X195280668Y-78865185D01*
X195280663Y-78865187D01*
X195131342Y-78957289D01*
X195007289Y-79081342D01*
X194915187Y-79230663D01*
X194915185Y-79230668D01*
X194915115Y-79230880D01*
X194860001Y-79397203D01*
X194860001Y-79397204D01*
X194860000Y-79397204D01*
X194849500Y-79499983D01*
X194849500Y-80500001D01*
X194849501Y-80500019D01*
X194860000Y-80602796D01*
X194860001Y-80602799D01*
X194915185Y-80769331D01*
X194915187Y-80769336D01*
X194949999Y-80825776D01*
X195007096Y-80918345D01*
X195007289Y-80918657D01*
X195131344Y-81042712D01*
X195263596Y-81124285D01*
X195310321Y-81176233D01*
X195322500Y-81229824D01*
X195322500Y-82036807D01*
X195346612Y-82158027D01*
X195346614Y-82158035D01*
X195367379Y-82208166D01*
X195393916Y-82272231D01*
X195393917Y-82272233D01*
X195409559Y-82295644D01*
X195409563Y-82295649D01*
X195409564Y-82295650D01*
X195411167Y-82298049D01*
X195462590Y-82375010D01*
X195462591Y-82375011D01*
X195675900Y-82588319D01*
X195709385Y-82649642D01*
X195704401Y-82719333D01*
X195662530Y-82775267D01*
X195597065Y-82799684D01*
X195588222Y-82800000D01*
X195550030Y-82800000D01*
X195550012Y-82800001D01*
X195447302Y-82810494D01*
X195280880Y-82865641D01*
X195280875Y-82865643D01*
X195131654Y-82957684D01*
X195007684Y-83081654D01*
X194915643Y-83230875D01*
X194915641Y-83230880D01*
X194860494Y-83397302D01*
X194860493Y-83397309D01*
X194850000Y-83500013D01*
X194850000Y-83844270D01*
X194830315Y-83911309D01*
X194777511Y-83957064D01*
X194708353Y-83967008D01*
X194644797Y-83937983D01*
X194638319Y-83931951D01*
X184268548Y-73562180D01*
X184235063Y-73500857D01*
X184240047Y-73431165D01*
X184281919Y-73375232D01*
X184347383Y-73350815D01*
X184356229Y-73350499D01*
X184437871Y-73350499D01*
X184437872Y-73350499D01*
X184497483Y-73344091D01*
X184632331Y-73293796D01*
X184747546Y-73207546D01*
X184833796Y-73092331D01*
X184884091Y-72957483D01*
X184890500Y-72897873D01*
X184890499Y-71102128D01*
X184884091Y-71042517D01*
X184877036Y-71023602D01*
X184833797Y-70907671D01*
X184833793Y-70907664D01*
X184747547Y-70792455D01*
X184747544Y-70792452D01*
X184632335Y-70706206D01*
X184632328Y-70706202D01*
X184497482Y-70655908D01*
X184497483Y-70655908D01*
X184437883Y-70649501D01*
X184437881Y-70649500D01*
X184437873Y-70649500D01*
X184437864Y-70649500D01*
X182642129Y-70649500D01*
X182642123Y-70649501D01*
X182582516Y-70655908D01*
X182447671Y-70706202D01*
X182447664Y-70706206D01*
X182332455Y-70792452D01*
X182332452Y-70792455D01*
X182246206Y-70907664D01*
X182246202Y-70907671D01*
X182195908Y-71042517D01*
X182189501Y-71102116D01*
X182189501Y-71102123D01*
X182189500Y-71102135D01*
X182189500Y-71112690D01*
X182169815Y-71179729D01*
X182153181Y-71200371D01*
X181482962Y-71870589D01*
X181465925Y-71807007D01*
X181400099Y-71692993D01*
X181307007Y-71599901D01*
X181192993Y-71534075D01*
X181129409Y-71517037D01*
X181761716Y-70884728D01*
X181707550Y-70845375D01*
X181518217Y-70748904D01*
X181316129Y-70683242D01*
X181106246Y-70650000D01*
X180893754Y-70650000D01*
X180683872Y-70683242D01*
X180683869Y-70683242D01*
X180481782Y-70748904D01*
X180292439Y-70845380D01*
X180238282Y-70884727D01*
X180238282Y-70884728D01*
X180870591Y-71517037D01*
X180807007Y-71534075D01*
X180692993Y-71599901D01*
X180599901Y-71692993D01*
X180534075Y-71807007D01*
X180517037Y-71870591D01*
X179884728Y-71238282D01*
X179884727Y-71238282D01*
X179845380Y-71292440D01*
X179845376Y-71292446D01*
X179840760Y-71301505D01*
X179792781Y-71352297D01*
X179724959Y-71369087D01*
X179658826Y-71346543D01*
X179619794Y-71301493D01*
X179615051Y-71292184D01*
X179615049Y-71292181D01*
X179615048Y-71292179D01*
X179490109Y-71120213D01*
X179393498Y-71023602D01*
X179339792Y-70969896D01*
X179258226Y-70910635D01*
X179255017Y-70907955D01*
X179237826Y-70882248D01*
X179218949Y-70857767D01*
X179217969Y-70852553D01*
X179216179Y-70849875D01*
X179216040Y-70842280D01*
X179210500Y-70812779D01*
X179210500Y-61386079D01*
X179190468Y-61285375D01*
X179184870Y-61257232D01*
X179181659Y-61241088D01*
X179141189Y-61143386D01*
X179126107Y-61106974D01*
X179125087Y-61104511D01*
X179125080Y-61104498D01*
X179042952Y-60981585D01*
X179025080Y-60963713D01*
X178938416Y-60877049D01*
X176666212Y-58604845D01*
X174392586Y-56331218D01*
X174359101Y-56269895D01*
X174362082Y-56210334D01*
X174361149Y-56210110D01*
X174362282Y-56205386D01*
X174362286Y-56205375D01*
X174382065Y-56080494D01*
X174396500Y-55989361D01*
X174396500Y-55770638D01*
X174376595Y-55644971D01*
X174362286Y-55554625D01*
X174294701Y-55346617D01*
X174294701Y-55346616D01*
X174260315Y-55279132D01*
X174195407Y-55151743D01*
X174187147Y-55140374D01*
X174066857Y-54974806D01*
X173912197Y-54820146D01*
X173912192Y-54820142D01*
X173760605Y-54710008D01*
X173717939Y-54654678D01*
X173711960Y-54585065D01*
X173744565Y-54523270D01*
X173760605Y-54509371D01*
X173911873Y-54399469D01*
X174066471Y-54244871D01*
X174066475Y-54244866D01*
X174194976Y-54067998D01*
X174294237Y-53873191D01*
X174294238Y-53873188D01*
X174361798Y-53665258D01*
X174373718Y-53590000D01*
X173322251Y-53590000D01*
X173353381Y-53536081D01*
X173388000Y-53406880D01*
X173388000Y-53273120D01*
X173353381Y-53143919D01*
X173322251Y-53090000D01*
X174373718Y-53090000D01*
X174361798Y-53014741D01*
X174294238Y-52806811D01*
X174294237Y-52806808D01*
X174194976Y-52612001D01*
X174066475Y-52435133D01*
X174066471Y-52435128D01*
X173911871Y-52280528D01*
X173911866Y-52280524D01*
X173760605Y-52170627D01*
X173717939Y-52115297D01*
X173711960Y-52045684D01*
X173744565Y-51983889D01*
X173760599Y-51969994D01*
X173912199Y-51859852D01*
X174066852Y-51705199D01*
X174066854Y-51705195D01*
X174066857Y-51705193D01*
X174123229Y-51627601D01*
X174195407Y-51528257D01*
X174294701Y-51333383D01*
X174362286Y-51125375D01*
X174391471Y-50941110D01*
X174396500Y-50909361D01*
X174396500Y-50690638D01*
X174362285Y-50474621D01*
X174302240Y-50289817D01*
X174300245Y-50219976D01*
X174336326Y-50160144D01*
X174399027Y-50129316D01*
X174420171Y-50127500D01*
X183968719Y-50127500D01*
X184035758Y-50147185D01*
G37*
%TD.AperFunction*%
%TA.AperFunction,Conductor*%
G36*
X172406619Y-53143919D02*
G01*
X172372000Y-53273120D01*
X172372000Y-53406880D01*
X172406619Y-53536081D01*
X172437749Y-53590000D01*
X172242000Y-53590000D01*
X172174961Y-53570315D01*
X172129206Y-53517511D01*
X172118000Y-53466000D01*
X172118000Y-53214000D01*
X172137685Y-53146961D01*
X172190489Y-53101206D01*
X172242000Y-53090000D01*
X172437749Y-53090000D01*
X172406619Y-53143919D01*
G37*
%TD.AperFunction*%
%TA.AperFunction,Conductor*%
G36*
X226006922Y-47001280D02*
G01*
X226097266Y-47011459D01*
X226124331Y-47017636D01*
X226203540Y-47045352D01*
X226228553Y-47057398D01*
X226299606Y-47102043D01*
X226321313Y-47119355D01*
X226380644Y-47178686D01*
X226397957Y-47200395D01*
X226442600Y-47271444D01*
X226454648Y-47296462D01*
X226482362Y-47375666D01*
X226488540Y-47402735D01*
X226492075Y-47434108D01*
X226497876Y-47485591D01*
X226498720Y-47493076D01*
X226499500Y-47506961D01*
X226499500Y-95493038D01*
X226498720Y-95506922D01*
X226498720Y-95506923D01*
X226488540Y-95597264D01*
X226482362Y-95624333D01*
X226454648Y-95703537D01*
X226442600Y-95728555D01*
X226397957Y-95799604D01*
X226380644Y-95821313D01*
X226321313Y-95880644D01*
X226299604Y-95897957D01*
X226228555Y-95942600D01*
X226203537Y-95954648D01*
X226124333Y-95982362D01*
X226097264Y-95988540D01*
X226017075Y-95997576D01*
X226006921Y-95998720D01*
X225993038Y-95999500D01*
X137006962Y-95999500D01*
X136993078Y-95998720D01*
X136980553Y-95997308D01*
X136902735Y-95988540D01*
X136875666Y-95982362D01*
X136796462Y-95954648D01*
X136771444Y-95942600D01*
X136700395Y-95897957D01*
X136678686Y-95880644D01*
X136619355Y-95821313D01*
X136602042Y-95799604D01*
X136557399Y-95728555D01*
X136545351Y-95703537D01*
X136517637Y-95624333D01*
X136511459Y-95597263D01*
X136501280Y-95506922D01*
X136500500Y-95493038D01*
X136500500Y-81381995D01*
X142199500Y-81381995D01*
X142199500Y-81618004D01*
X142199501Y-81618020D01*
X142230306Y-81852010D01*
X142291394Y-82079993D01*
X142381714Y-82298045D01*
X142381719Y-82298056D01*
X142448127Y-82413077D01*
X142499727Y-82502450D01*
X142499729Y-82502453D01*
X142499730Y-82502454D01*
X142643406Y-82689697D01*
X142643412Y-82689704D01*
X142810295Y-82856587D01*
X142810302Y-82856593D01*
X142828014Y-82870184D01*
X142997550Y-83000273D01*
X143084049Y-83050213D01*
X143201943Y-83118280D01*
X143201948Y-83118282D01*
X143201951Y-83118284D01*
X143420007Y-83208606D01*
X143647986Y-83269693D01*
X143881989Y-83300500D01*
X143881996Y-83300500D01*
X144118004Y-83300500D01*
X144118011Y-83300500D01*
X144352014Y-83269693D01*
X144579993Y-83208606D01*
X144798049Y-83118284D01*
X145002450Y-83000273D01*
X145189699Y-82856592D01*
X145356592Y-82689699D01*
X145500273Y-82502450D01*
X145618284Y-82298049D01*
X145708606Y-82079993D01*
X145769693Y-81852014D01*
X145800500Y-81618011D01*
X145800500Y-81381989D01*
X145769693Y-81147986D01*
X145708606Y-80920007D01*
X145618284Y-80701951D01*
X145618282Y-80701948D01*
X145618280Y-80701943D01*
X145562067Y-80604581D01*
X145500273Y-80497550D01*
X145431301Y-80407664D01*
X145356593Y-80310302D01*
X145356587Y-80310295D01*
X145189704Y-80143412D01*
X145189697Y-80143406D01*
X145002454Y-79999730D01*
X145002453Y-79999729D01*
X145002450Y-79999727D01*
X144920957Y-79952677D01*
X144798056Y-79881719D01*
X144798045Y-79881714D01*
X144579993Y-79791394D01*
X144352010Y-79730306D01*
X144118020Y-79699501D01*
X144118017Y-79699500D01*
X144118011Y-79699500D01*
X143881989Y-79699500D01*
X143881983Y-79699500D01*
X143881979Y-79699501D01*
X143647989Y-79730306D01*
X143420006Y-79791394D01*
X143201954Y-79881714D01*
X143201943Y-79881719D01*
X142997545Y-79999730D01*
X142810302Y-80143406D01*
X142810295Y-80143412D01*
X142643412Y-80310295D01*
X142643406Y-80310302D01*
X142499730Y-80497545D01*
X142381719Y-80701943D01*
X142381714Y-80701954D01*
X142291394Y-80920006D01*
X142230306Y-81147989D01*
X142199501Y-81381979D01*
X142199500Y-81381995D01*
X136500500Y-81381995D01*
X136500500Y-59989198D01*
X146821500Y-59989198D01*
X146821500Y-83993119D01*
X146845612Y-84114340D01*
X146845613Y-84114344D01*
X146845614Y-84114347D01*
X146874066Y-84183034D01*
X146892917Y-84228545D01*
X146938812Y-84297232D01*
X146941469Y-84301209D01*
X146941475Y-84301219D01*
X146961585Y-84331315D01*
X146961591Y-84331323D01*
X148192277Y-85562008D01*
X148257769Y-85627500D01*
X148279682Y-85649413D01*
X148279684Y-85649414D01*
X148382444Y-85718076D01*
X148382446Y-85718077D01*
X148382455Y-85718083D01*
X148402443Y-85726362D01*
X148429759Y-85737677D01*
X148463131Y-85751500D01*
X148496654Y-85765386D01*
X148602466Y-85786433D01*
X148617880Y-85789499D01*
X148617884Y-85789500D01*
X148617885Y-85789500D01*
X149762116Y-85789500D01*
X149762117Y-85789499D01*
X149883347Y-85765386D01*
X149964096Y-85731937D01*
X149997545Y-85718083D01*
X150100320Y-85649411D01*
X150187723Y-85562008D01*
X151155912Y-84593819D01*
X151217235Y-84560334D01*
X151243593Y-84557500D01*
X152136060Y-84557500D01*
X152203099Y-84577185D01*
X152248854Y-84629989D01*
X152258798Y-84699147D01*
X152229773Y-84762703D01*
X152208948Y-84781815D01*
X152055063Y-84893621D01*
X152055061Y-84893623D01*
X152055060Y-84893623D01*
X151893622Y-85055061D01*
X151759421Y-85239771D01*
X151655770Y-85443196D01*
X151585215Y-85660339D01*
X151549500Y-85885837D01*
X151549500Y-86114162D01*
X151585215Y-86339660D01*
X151655770Y-86556803D01*
X151717986Y-86678907D01*
X151759421Y-86760228D01*
X151893621Y-86944937D01*
X152055063Y-87106379D01*
X152239772Y-87240579D01*
X152335884Y-87289550D01*
X152443196Y-87344229D01*
X152443198Y-87344229D01*
X152443201Y-87344231D01*
X152545343Y-87377419D01*
X152660339Y-87414784D01*
X152885838Y-87450500D01*
X152885843Y-87450500D01*
X153114162Y-87450500D01*
X153339660Y-87414784D01*
X153351601Y-87410904D01*
X153556799Y-87344231D01*
X153760228Y-87240579D01*
X153944937Y-87106379D01*
X154106379Y-86944937D01*
X154240579Y-86760228D01*
X154344231Y-86556799D01*
X154414784Y-86339660D01*
X154430199Y-86242335D01*
X154450500Y-86114162D01*
X154450500Y-85885837D01*
X154414784Y-85660339D01*
X154380344Y-85554346D01*
X154344231Y-85443201D01*
X154344229Y-85443198D01*
X154344229Y-85443196D01*
X154244387Y-85247246D01*
X154240579Y-85239772D01*
X154106379Y-85055063D01*
X153944937Y-84893621D01*
X153791053Y-84781817D01*
X153748389Y-84726488D01*
X153742410Y-84656874D01*
X153775016Y-84595079D01*
X153835855Y-84560722D01*
X153863940Y-84557500D01*
X155538039Y-84557500D01*
X155605078Y-84577185D01*
X155648525Y-84625208D01*
X155654949Y-84637818D01*
X155779890Y-84809786D01*
X155930213Y-84960109D01*
X156102179Y-85085048D01*
X156102181Y-85085049D01*
X156102184Y-85085051D01*
X156291588Y-85181557D01*
X156493757Y-85247246D01*
X156703713Y-85280500D01*
X156703714Y-85280500D01*
X156916286Y-85280500D01*
X156916287Y-85280500D01*
X157126243Y-85247246D01*
X157328412Y-85181557D01*
X157517816Y-85085051D01*
X157576094Y-85042710D01*
X157689786Y-84960109D01*
X157689788Y-84960106D01*
X157689792Y-84960104D01*
X157840104Y-84809792D01*
X157840106Y-84809788D01*
X157840109Y-84809786D01*
X157965048Y-84637820D01*
X157965047Y-84637820D01*
X157965051Y-84637816D01*
X158061557Y-84448412D01*
X158127246Y-84246243D01*
X158160500Y-84036287D01*
X158160500Y-83823713D01*
X158127246Y-83613757D01*
X158061557Y-83411588D01*
X157965051Y-83222184D01*
X157965049Y-83222181D01*
X157965048Y-83222179D01*
X157840109Y-83050213D01*
X157689786Y-82899890D01*
X157517820Y-82774951D01*
X157328414Y-82678444D01*
X157328413Y-82678443D01*
X157328412Y-82678443D01*
X157126243Y-82612754D01*
X157126241Y-82612753D01*
X157126240Y-82612753D01*
X156962863Y-82586877D01*
X156916287Y-82579500D01*
X156703713Y-82579500D01*
X156657137Y-82586877D01*
X156493760Y-82612753D01*
X156291585Y-82678444D01*
X156102179Y-82774951D01*
X155930213Y-82899890D01*
X155779890Y-83050213D01*
X155654949Y-83222181D01*
X155648525Y-83234792D01*
X155600552Y-83285589D01*
X155538039Y-83302500D01*
X150870507Y-83302500D01*
X150749282Y-83326613D01*
X150749272Y-83326616D01*
X150635085Y-83373913D01*
X150635067Y-83373923D01*
X150592413Y-83402424D01*
X150525736Y-83423302D01*
X150458356Y-83404817D01*
X150413038Y-83355617D01*
X150345051Y-83222184D01*
X150345049Y-83222181D01*
X150345048Y-83222179D01*
X150220109Y-83050213D01*
X150069786Y-82899890D01*
X149897820Y-82774951D01*
X149708414Y-82678444D01*
X149708413Y-82678443D01*
X149708412Y-82678443D01*
X149506243Y-82612754D01*
X149506241Y-82612753D01*
X149506240Y-82612753D01*
X149342863Y-82586877D01*
X149296287Y-82579500D01*
X149083713Y-82579500D01*
X149013727Y-82590584D01*
X148873755Y-82612754D01*
X148860293Y-82617128D01*
X148845080Y-82617562D01*
X148830823Y-82622880D01*
X148810868Y-82618539D01*
X148790451Y-82619122D01*
X148776364Y-82611033D01*
X148762550Y-82608028D01*
X148734296Y-82586877D01*
X148621819Y-82474400D01*
X148588334Y-82413077D01*
X148585500Y-82386719D01*
X148585500Y-72362378D01*
X160549500Y-72362378D01*
X160549500Y-72637621D01*
X160580315Y-72911108D01*
X160580317Y-72911124D01*
X160641561Y-73179453D01*
X160641565Y-73179465D01*
X160732467Y-73439246D01*
X160851884Y-73687218D01*
X160851886Y-73687221D01*
X160998319Y-73920268D01*
X161169925Y-74135455D01*
X161364545Y-74330075D01*
X161579732Y-74501681D01*
X161812779Y-74648114D01*
X162060757Y-74767534D01*
X162255865Y-74835805D01*
X162320534Y-74858434D01*
X162320546Y-74858438D01*
X162588879Y-74919683D01*
X162862378Y-74950499D01*
X162862379Y-74950500D01*
X162862383Y-74950500D01*
X163137621Y-74950500D01*
X163137621Y-74950499D01*
X163411121Y-74919683D01*
X163679454Y-74858438D01*
X163939243Y-74767534D01*
X164187221Y-74648114D01*
X164420268Y-74501681D01*
X164635455Y-74330075D01*
X164830075Y-74135455D01*
X165001681Y-73920268D01*
X165148114Y-73687221D01*
X165267534Y-73439243D01*
X165358438Y-73179454D01*
X165419683Y-72911121D01*
X165450500Y-72637617D01*
X165450500Y-72362383D01*
X165419683Y-72088879D01*
X165358438Y-71820546D01*
X165267534Y-71560757D01*
X165148114Y-71312779D01*
X165001681Y-71079732D01*
X164830075Y-70864545D01*
X164635455Y-70669925D01*
X164420268Y-70498319D01*
X164187221Y-70351886D01*
X164187218Y-70351884D01*
X163939246Y-70232467D01*
X163679465Y-70141565D01*
X163679453Y-70141561D01*
X163411124Y-70080317D01*
X163411108Y-70080315D01*
X163137621Y-70049500D01*
X163137617Y-70049500D01*
X162862383Y-70049500D01*
X162862379Y-70049500D01*
X162588891Y-70080315D01*
X162588875Y-70080317D01*
X162320546Y-70141561D01*
X162320534Y-70141565D01*
X162060753Y-70232467D01*
X161812781Y-70351884D01*
X161579733Y-70498318D01*
X161364545Y-70669924D01*
X161169924Y-70864545D01*
X160998318Y-71079733D01*
X160851884Y-71312781D01*
X160732467Y-71560753D01*
X160641565Y-71820534D01*
X160641561Y-71820546D01*
X160580317Y-72088875D01*
X160580315Y-72088891D01*
X160549500Y-72362378D01*
X148585500Y-72362378D01*
X148585500Y-62464256D01*
X148605185Y-62397217D01*
X148657989Y-62351462D01*
X148727147Y-62341518D01*
X148747807Y-62346322D01*
X148873757Y-62387246D01*
X149083713Y-62420500D01*
X149083714Y-62420500D01*
X149296286Y-62420500D01*
X149296287Y-62420500D01*
X149506243Y-62387246D01*
X149708412Y-62321557D01*
X149897816Y-62225051D01*
X149952927Y-62185011D01*
X150069786Y-62100109D01*
X150069788Y-62100106D01*
X150069792Y-62100104D01*
X150220104Y-61949792D01*
X150220106Y-61949788D01*
X150220109Y-61949786D01*
X150345048Y-61777820D01*
X150345047Y-61777820D01*
X150345051Y-61777816D01*
X150441557Y-61588412D01*
X150507246Y-61386243D01*
X150540500Y-61176287D01*
X150540500Y-60963713D01*
X150507246Y-60753757D01*
X150441557Y-60551588D01*
X150345051Y-60362184D01*
X150345049Y-60362181D01*
X150345048Y-60362179D01*
X150220109Y-60190213D01*
X150075297Y-60045401D01*
X150041812Y-59984078D01*
X150046796Y-59914386D01*
X150075295Y-59870041D01*
X151371861Y-58573475D01*
X151433182Y-58539992D01*
X151502874Y-58544976D01*
X151558807Y-58586848D01*
X151583224Y-58652312D01*
X151582013Y-58680556D01*
X151549500Y-58885837D01*
X151549500Y-59114162D01*
X151585215Y-59339660D01*
X151655770Y-59556803D01*
X151736185Y-59714625D01*
X151759421Y-59760228D01*
X151893621Y-59944937D01*
X152055063Y-60106379D01*
X152239772Y-60240579D01*
X152287301Y-60264796D01*
X152443196Y-60344229D01*
X152443198Y-60344229D01*
X152443201Y-60344231D01*
X152559592Y-60382049D01*
X152660339Y-60414784D01*
X152885838Y-60450500D01*
X152885843Y-60450500D01*
X153114162Y-60450500D01*
X153339660Y-60414784D01*
X153556799Y-60344231D01*
X153760228Y-60240579D01*
X153944937Y-60106379D01*
X154106379Y-59944937D01*
X154240579Y-59760228D01*
X154344231Y-59556799D01*
X154414784Y-59339660D01*
X154426658Y-59264690D01*
X154450500Y-59114162D01*
X154450500Y-58885837D01*
X154414784Y-58660339D01*
X154372226Y-58529361D01*
X154344231Y-58443201D01*
X154344229Y-58443198D01*
X154344229Y-58443196D01*
X154240578Y-58239771D01*
X154106379Y-58055063D01*
X153944937Y-57893621D01*
X153760228Y-57759421D01*
X153556803Y-57655770D01*
X153339660Y-57585215D01*
X153114162Y-57549500D01*
X153114157Y-57549500D01*
X152885843Y-57549500D01*
X152885838Y-57549500D01*
X152680556Y-57582013D01*
X152611262Y-57573058D01*
X152557810Y-57528062D01*
X152537171Y-57461310D01*
X152555896Y-57393997D01*
X152573472Y-57371865D01*
X160290519Y-49654819D01*
X160351842Y-49621334D01*
X160378200Y-49618500D01*
X167074719Y-49618500D01*
X167141758Y-49638185D01*
X167187513Y-49690989D01*
X167197457Y-49760147D01*
X167168432Y-49823703D01*
X167162400Y-49830181D01*
X157265702Y-59726877D01*
X157204379Y-59760362D01*
X157139707Y-59757128D01*
X157126245Y-59752754D01*
X157126240Y-59752753D01*
X156962863Y-59726877D01*
X156916287Y-59719500D01*
X156703713Y-59719500D01*
X156657137Y-59726877D01*
X156493760Y-59752753D01*
X156291585Y-59818444D01*
X156102179Y-59914951D01*
X155930213Y-60039890D01*
X155779890Y-60190213D01*
X155654951Y-60362179D01*
X155558444Y-60551585D01*
X155492753Y-60753760D01*
X155459500Y-60963713D01*
X155459500Y-61176286D01*
X155488598Y-61360008D01*
X155492754Y-61386243D01*
X155558146Y-61587499D01*
X155558444Y-61588414D01*
X155654951Y-61777820D01*
X155779890Y-61949786D01*
X155930213Y-62100109D01*
X156102179Y-62225048D01*
X156102181Y-62225049D01*
X156102184Y-62225051D01*
X156291588Y-62321557D01*
X156493757Y-62387246D01*
X156703713Y-62420500D01*
X156703714Y-62420500D01*
X156916286Y-62420500D01*
X156916287Y-62420500D01*
X157126243Y-62387246D01*
X157328412Y-62321557D01*
X157517816Y-62225051D01*
X157572927Y-62185011D01*
X157689786Y-62100109D01*
X157689788Y-62100106D01*
X157689792Y-62100104D01*
X157840104Y-61949792D01*
X157840106Y-61949788D01*
X157840109Y-61949786D01*
X157965048Y-61777820D01*
X157965047Y-61777820D01*
X157965051Y-61777816D01*
X158061557Y-61588412D01*
X158127246Y-61386243D01*
X158160500Y-61176287D01*
X158160500Y-60963713D01*
X158127246Y-60753757D01*
X158122872Y-60740298D01*
X158120874Y-60670459D01*
X158153119Y-60614298D01*
X168603600Y-50163819D01*
X168664923Y-50130334D01*
X168691281Y-50127500D01*
X169815829Y-50127500D01*
X169882868Y-50147185D01*
X169928623Y-50199989D01*
X169938567Y-50269147D01*
X169933760Y-50289817D01*
X169873714Y-50474621D01*
X169839500Y-50690638D01*
X169839500Y-50909361D01*
X169873714Y-51125376D01*
X169941297Y-51333380D01*
X169941298Y-51333383D01*
X169988677Y-51426367D01*
X170001573Y-51495036D01*
X169975297Y-51559776D01*
X169965873Y-51570343D01*
X168743048Y-52793169D01*
X168730987Y-52811221D01*
X168696861Y-52862296D01*
X168660914Y-52916093D01*
X168660913Y-52916095D01*
X168604343Y-53052668D01*
X168604340Y-53052678D01*
X168575500Y-53197665D01*
X168575500Y-53197668D01*
X168575500Y-88748144D01*
X168575500Y-88748146D01*
X168575499Y-88748146D01*
X168604340Y-88893133D01*
X168604343Y-88893143D01*
X168660913Y-89029716D01*
X168660918Y-89029725D01*
X168666414Y-89037950D01*
X168666416Y-89037952D01*
X168712074Y-89106286D01*
X168743051Y-89152646D01*
X168743052Y-89152647D01*
X174778358Y-95187952D01*
X174778360Y-95187954D01*
X174807832Y-95207645D01*
X174852044Y-95237186D01*
X174901279Y-95270084D01*
X174901280Y-95270084D01*
X174901281Y-95270085D01*
X174901283Y-95270086D01*
X175037856Y-95326656D01*
X175037861Y-95326658D01*
X175037865Y-95326658D01*
X175037866Y-95326659D01*
X175182853Y-95355500D01*
X175182856Y-95355500D01*
X200943920Y-95355500D01*
X201041462Y-95336096D01*
X201088913Y-95326658D01*
X201225495Y-95270084D01*
X201274729Y-95237186D01*
X201274734Y-95237183D01*
X201299071Y-95220921D01*
X201348416Y-95187952D01*
X210629360Y-85907006D01*
X210647846Y-85896912D01*
X210663520Y-85882833D01*
X210677898Y-85880502D01*
X210690681Y-85873523D01*
X210711692Y-85875025D01*
X210732490Y-85871655D01*
X210745845Y-85877468D01*
X210760373Y-85878507D01*
X210777238Y-85891132D01*
X210796554Y-85899540D01*
X210813154Y-85918019D01*
X210816306Y-85920379D01*
X210820136Y-85925791D01*
X210830516Y-85941325D01*
X210830517Y-85941328D01*
X210830518Y-85941328D01*
X210892051Y-86033420D01*
X210892052Y-86033421D01*
X213549824Y-88691192D01*
X213583309Y-88752515D01*
X213584616Y-88798271D01*
X213569500Y-88893707D01*
X213569500Y-89106286D01*
X213586491Y-89213567D01*
X213602754Y-89316243D01*
X213660977Y-89495435D01*
X213668444Y-89518414D01*
X213764951Y-89707820D01*
X213889890Y-89879786D01*
X214040213Y-90030109D01*
X214212179Y-90155048D01*
X214212181Y-90155049D01*
X214212184Y-90155051D01*
X214401588Y-90251557D01*
X214603757Y-90317246D01*
X214813713Y-90350500D01*
X214813714Y-90350500D01*
X215026286Y-90350500D01*
X215026287Y-90350500D01*
X215236243Y-90317246D01*
X215438412Y-90251557D01*
X215627816Y-90155051D01*
X215649789Y-90139086D01*
X215799786Y-90030109D01*
X215799788Y-90030106D01*
X215799792Y-90030104D01*
X215950104Y-89879792D01*
X215950106Y-89879788D01*
X215950109Y-89879786D01*
X216075048Y-89707820D01*
X216075047Y-89707820D01*
X216075051Y-89707816D01*
X216079514Y-89699054D01*
X216127488Y-89648259D01*
X216195308Y-89631463D01*
X216261444Y-89653999D01*
X216300486Y-89699056D01*
X216304951Y-89707820D01*
X216429890Y-89879786D01*
X216580213Y-90030109D01*
X216752179Y-90155048D01*
X216752181Y-90155049D01*
X216752184Y-90155051D01*
X216941588Y-90251557D01*
X217143757Y-90317246D01*
X217353713Y-90350500D01*
X217353714Y-90350500D01*
X217566286Y-90350500D01*
X217566287Y-90350500D01*
X217776243Y-90317246D01*
X217978412Y-90251557D01*
X218167816Y-90155051D01*
X218339792Y-90030104D01*
X218453329Y-89916566D01*
X218514648Y-89883084D01*
X218584340Y-89888068D01*
X218640274Y-89929939D01*
X218657189Y-89960917D01*
X218706202Y-90092328D01*
X218706206Y-90092335D01*
X218792452Y-90207544D01*
X218792455Y-90207547D01*
X218907664Y-90293793D01*
X218907671Y-90293797D01*
X219042517Y-90344091D01*
X219042516Y-90344091D01*
X219049444Y-90344835D01*
X219102127Y-90350500D01*
X220897872Y-90350499D01*
X220957483Y-90344091D01*
X221092331Y-90293796D01*
X221207546Y-90207546D01*
X221293796Y-90092331D01*
X221344091Y-89957483D01*
X221350500Y-89897873D01*
X221350499Y-88102128D01*
X221344091Y-88042517D01*
X221328233Y-88000000D01*
X221293797Y-87907671D01*
X221293793Y-87907664D01*
X221207547Y-87792455D01*
X221207544Y-87792452D01*
X221092335Y-87706206D01*
X221092328Y-87706202D01*
X220957482Y-87655908D01*
X220957483Y-87655908D01*
X220897883Y-87649501D01*
X220897881Y-87649500D01*
X220897873Y-87649500D01*
X220897865Y-87649500D01*
X220171229Y-87649500D01*
X220104190Y-87629815D01*
X220058435Y-87577011D01*
X220048491Y-87507853D01*
X220077516Y-87444297D01*
X220083548Y-87437819D01*
X220582948Y-86938419D01*
X220582948Y-86938418D01*
X220582951Y-86938416D01*
X220665084Y-86815495D01*
X220721658Y-86678913D01*
X220733747Y-86618141D01*
X220750500Y-86533920D01*
X220750500Y-83974499D01*
X220770185Y-83907460D01*
X220822989Y-83861705D01*
X220874500Y-83850499D01*
X220897871Y-83850499D01*
X220897872Y-83850499D01*
X220957483Y-83844091D01*
X221092331Y-83793796D01*
X221207546Y-83707546D01*
X221293796Y-83592331D01*
X221344091Y-83457483D01*
X221350500Y-83397873D01*
X221350499Y-81602128D01*
X221344091Y-81542517D01*
X221293796Y-81407669D01*
X221293795Y-81407668D01*
X221293793Y-81407664D01*
X221207547Y-81292455D01*
X221207544Y-81292452D01*
X221092335Y-81206206D01*
X221092328Y-81206202D01*
X220957482Y-81155908D01*
X220957483Y-81155908D01*
X220897883Y-81149501D01*
X220897881Y-81149500D01*
X220897873Y-81149500D01*
X220897865Y-81149500D01*
X220887309Y-81149500D01*
X220820270Y-81129815D01*
X220799628Y-81113181D01*
X220129408Y-80442962D01*
X220192993Y-80425925D01*
X220307007Y-80360099D01*
X220400099Y-80267007D01*
X220465925Y-80152993D01*
X220482962Y-80089408D01*
X221115270Y-80721717D01*
X221115270Y-80721716D01*
X221154622Y-80667554D01*
X221251095Y-80478217D01*
X221316757Y-80276130D01*
X221316757Y-80276127D01*
X221350000Y-80066246D01*
X221350000Y-79853753D01*
X221316757Y-79643872D01*
X221316757Y-79643869D01*
X221251095Y-79441782D01*
X221154624Y-79252449D01*
X221115270Y-79198282D01*
X221115269Y-79198282D01*
X220482962Y-79830590D01*
X220465925Y-79767007D01*
X220400099Y-79652993D01*
X220307007Y-79559901D01*
X220192993Y-79494075D01*
X220129409Y-79477037D01*
X220761716Y-78844728D01*
X220707550Y-78805375D01*
X220518217Y-78708904D01*
X220316129Y-78643242D01*
X220106246Y-78610000D01*
X219893754Y-78610000D01*
X219683872Y-78643242D01*
X219683869Y-78643242D01*
X219481782Y-78708904D01*
X219292439Y-78805380D01*
X219238282Y-78844727D01*
X219238282Y-78844728D01*
X219870591Y-79477037D01*
X219807007Y-79494075D01*
X219692993Y-79559901D01*
X219599901Y-79652993D01*
X219534075Y-79767007D01*
X219517037Y-79830591D01*
X218884728Y-79198282D01*
X218884727Y-79198282D01*
X218845380Y-79252439D01*
X218748904Y-79441782D01*
X218683242Y-79643869D01*
X218683242Y-79643872D01*
X218650000Y-79853753D01*
X218650000Y-80066246D01*
X218683242Y-80276127D01*
X218683242Y-80276130D01*
X218748904Y-80478217D01*
X218845375Y-80667550D01*
X218884728Y-80721716D01*
X219517037Y-80089408D01*
X219534075Y-80152993D01*
X219599901Y-80267007D01*
X219692993Y-80360099D01*
X219807007Y-80425925D01*
X219870590Y-80442962D01*
X219200370Y-81113181D01*
X219139047Y-81146666D01*
X219112698Y-81149500D01*
X219102134Y-81149500D01*
X219102123Y-81149501D01*
X219042516Y-81155908D01*
X218907671Y-81206202D01*
X218907664Y-81206206D01*
X218792455Y-81292452D01*
X218792452Y-81292455D01*
X218706206Y-81407664D01*
X218706202Y-81407671D01*
X218655908Y-81542517D01*
X218649501Y-81602116D01*
X218649501Y-81602123D01*
X218649500Y-81602135D01*
X218649500Y-83397870D01*
X218649501Y-83397876D01*
X218655908Y-83457483D01*
X218706202Y-83592328D01*
X218706206Y-83592335D01*
X218792452Y-83707544D01*
X218792455Y-83707547D01*
X218907664Y-83793793D01*
X218907671Y-83793797D01*
X218952618Y-83810561D01*
X219042517Y-83844091D01*
X219102127Y-83850500D01*
X219125497Y-83850499D01*
X219192536Y-83870181D01*
X219238292Y-83922983D01*
X219249500Y-83974499D01*
X219249500Y-86097769D01*
X219229815Y-86164808D01*
X219213181Y-86185450D01*
X217768807Y-87629824D01*
X217707484Y-87663309D01*
X217661728Y-87664616D01*
X217566292Y-87649500D01*
X217566287Y-87649500D01*
X217353713Y-87649500D01*
X217305042Y-87657208D01*
X217143760Y-87682753D01*
X216941585Y-87748444D01*
X216752179Y-87844951D01*
X216580213Y-87969890D01*
X216429890Y-88120213D01*
X216304949Y-88292182D01*
X216300484Y-88300946D01*
X216252509Y-88351742D01*
X216184688Y-88368536D01*
X216118553Y-88345998D01*
X216079516Y-88300946D01*
X216075050Y-88292182D01*
X215950109Y-88120213D01*
X215799786Y-87969890D01*
X215627820Y-87844951D01*
X215438414Y-87748444D01*
X215438413Y-87748443D01*
X215438412Y-87748443D01*
X215236243Y-87682754D01*
X215236241Y-87682753D01*
X215236240Y-87682753D01*
X215074957Y-87657208D01*
X215026287Y-87649500D01*
X214813713Y-87649500D01*
X214813708Y-87649500D01*
X214718271Y-87664616D01*
X214648978Y-87655662D01*
X214611192Y-87629824D01*
X212261819Y-85280451D01*
X212247115Y-85253523D01*
X212230523Y-85227705D01*
X212229631Y-85221504D01*
X212228334Y-85219128D01*
X212225500Y-85192770D01*
X212225500Y-85136867D01*
X212245185Y-85069828D01*
X212264386Y-85048656D01*
X212263549Y-85047819D01*
X212268658Y-85042710D01*
X212392712Y-84918656D01*
X212394461Y-84915819D01*
X212396169Y-84914283D01*
X212397193Y-84912989D01*
X212397414Y-84913163D01*
X212446406Y-84869096D01*
X212515368Y-84857872D01*
X212579451Y-84885713D01*
X212605537Y-84915817D01*
X212607288Y-84918656D01*
X212731344Y-85042712D01*
X212880666Y-85134814D01*
X213047203Y-85189999D01*
X213149991Y-85200500D01*
X213900008Y-85200499D01*
X213900016Y-85200498D01*
X213900019Y-85200498D01*
X213975670Y-85192770D01*
X214002797Y-85189999D01*
X214169334Y-85134814D01*
X214318656Y-85042712D01*
X214442712Y-84918656D01*
X214534814Y-84769334D01*
X214589999Y-84602797D01*
X214600500Y-84500009D01*
X214600499Y-83499992D01*
X214589999Y-83397203D01*
X214534814Y-83230666D01*
X214442712Y-83081344D01*
X214318656Y-82957288D01*
X214169334Y-82865186D01*
X214169331Y-82865185D01*
X214169326Y-82865183D01*
X214167491Y-82864575D01*
X214166396Y-82863817D01*
X214162791Y-82862136D01*
X214163078Y-82861519D01*
X214110048Y-82824800D01*
X214083227Y-82760283D01*
X214082500Y-82746871D01*
X214082500Y-81229824D01*
X214102185Y-81162785D01*
X214141404Y-81124285D01*
X214143296Y-81123118D01*
X214273656Y-81042712D01*
X214397712Y-80918656D01*
X214489814Y-80769334D01*
X214544999Y-80602797D01*
X214555500Y-80500009D01*
X214555499Y-79499992D01*
X214544999Y-79397203D01*
X214489814Y-79230666D01*
X214397712Y-79081344D01*
X214273656Y-78957288D01*
X214124334Y-78865186D01*
X213957797Y-78810001D01*
X213957795Y-78810000D01*
X213855010Y-78799500D01*
X213054998Y-78799500D01*
X213054980Y-78799501D01*
X212952203Y-78810000D01*
X212952200Y-78810001D01*
X212785668Y-78865185D01*
X212785663Y-78865187D01*
X212636345Y-78957287D01*
X212542327Y-79051305D01*
X212481003Y-79084789D01*
X212411312Y-79079805D01*
X212366965Y-79051304D01*
X212273345Y-78957684D01*
X212124124Y-78865643D01*
X212124119Y-78865641D01*
X211957697Y-78810494D01*
X211957690Y-78810493D01*
X211854986Y-78800000D01*
X211705000Y-78800000D01*
X211705000Y-81199999D01*
X211854972Y-81199999D01*
X211854986Y-81199998D01*
X211957697Y-81189505D01*
X212124119Y-81134358D01*
X212124124Y-81134356D01*
X212273342Y-81042317D01*
X212366964Y-80948695D01*
X212428287Y-80915210D01*
X212497979Y-80920194D01*
X212542327Y-80948695D01*
X212636344Y-81042712D01*
X212768596Y-81124285D01*
X212815321Y-81176233D01*
X212827500Y-81229824D01*
X212827500Y-82828771D01*
X212807815Y-82895810D01*
X212768598Y-82934309D01*
X212731344Y-82957287D01*
X212607285Y-83081346D01*
X212605537Y-83084182D01*
X212603829Y-83085717D01*
X212602807Y-83087011D01*
X212602585Y-83086836D01*
X212553589Y-83130905D01*
X212484626Y-83142126D01*
X212420544Y-83114282D01*
X212394463Y-83084182D01*
X212392714Y-83081346D01*
X212268657Y-82957289D01*
X212268656Y-82957288D01*
X212119334Y-82865186D01*
X211952797Y-82810001D01*
X211952795Y-82810000D01*
X211850010Y-82799500D01*
X211099998Y-82799500D01*
X211099980Y-82799501D01*
X210997203Y-82810000D01*
X210997200Y-82810001D01*
X210830668Y-82865185D01*
X210830663Y-82865187D01*
X210681342Y-82957289D01*
X210557289Y-83081342D01*
X210465187Y-83230663D01*
X210465185Y-83230668D01*
X210437349Y-83314670D01*
X210410001Y-83397203D01*
X210410001Y-83397204D01*
X210410000Y-83397204D01*
X210399500Y-83499983D01*
X210399500Y-83962769D01*
X210379815Y-84029808D01*
X210363181Y-84050450D01*
X200595451Y-93818181D01*
X200534128Y-93851666D01*
X200507770Y-93854500D01*
X182724500Y-93854500D01*
X182657461Y-93834815D01*
X182611706Y-93782011D01*
X182600500Y-93730500D01*
X182600499Y-92133500D01*
X182620184Y-92066461D01*
X182672987Y-92020706D01*
X182724499Y-92009500D01*
X186679804Y-92009500D01*
X186679805Y-92009499D01*
X186801035Y-91985386D01*
X186881784Y-91951937D01*
X186915233Y-91938083D01*
X187018008Y-91869411D01*
X187105411Y-91782008D01*
X187425258Y-91462159D01*
X187486578Y-91428677D01*
X187551252Y-91431911D01*
X187648632Y-91463553D01*
X187765270Y-91482026D01*
X187881903Y-91500500D01*
X187881908Y-91500500D01*
X188118097Y-91500500D01*
X188351368Y-91463553D01*
X188355649Y-91462162D01*
X188575992Y-91390568D01*
X188786433Y-91283343D01*
X188977510Y-91144517D01*
X189144517Y-90977510D01*
X189283343Y-90786433D01*
X189390568Y-90575992D01*
X189463553Y-90351368D01*
X189472671Y-90293797D01*
X189500500Y-90118097D01*
X189500500Y-89881902D01*
X189463553Y-89648631D01*
X189406116Y-89471861D01*
X189390568Y-89424008D01*
X189390566Y-89424005D01*
X189390566Y-89424003D01*
X189283477Y-89213830D01*
X189283343Y-89213567D01*
X189144517Y-89022490D01*
X188977510Y-88855483D01*
X188921259Y-88814614D01*
X188878595Y-88759284D01*
X188873902Y-88727455D01*
X188129408Y-87982962D01*
X188192993Y-87965925D01*
X188307007Y-87900099D01*
X188400099Y-87807007D01*
X188465925Y-87692993D01*
X188482962Y-87629409D01*
X189222658Y-88369105D01*
X189222658Y-88369104D01*
X189282914Y-88286169D01*
X189282918Y-88286163D01*
X189390102Y-88075802D01*
X189463065Y-87851247D01*
X189500000Y-87618052D01*
X189500000Y-87381947D01*
X189463065Y-87148752D01*
X189390102Y-86924197D01*
X189282914Y-86713828D01*
X189213394Y-86618142D01*
X189189914Y-86552335D01*
X189205739Y-86484281D01*
X189239401Y-86445989D01*
X189242329Y-86443796D01*
X189242331Y-86443796D01*
X189357546Y-86357546D01*
X189443796Y-86242331D01*
X189494091Y-86107483D01*
X189500500Y-86047873D01*
X189500499Y-83952128D01*
X189494091Y-83892517D01*
X189485760Y-83870181D01*
X189443797Y-83757671D01*
X189443793Y-83757664D01*
X189357547Y-83642455D01*
X189357544Y-83642452D01*
X189242335Y-83556206D01*
X189242328Y-83556202D01*
X189107482Y-83505908D01*
X189107483Y-83505908D01*
X189047883Y-83499501D01*
X189047881Y-83499500D01*
X189047873Y-83499500D01*
X189047864Y-83499500D01*
X186952129Y-83499500D01*
X186952123Y-83499501D01*
X186892516Y-83505908D01*
X186757671Y-83556202D01*
X186757664Y-83556206D01*
X186642455Y-83642452D01*
X186642452Y-83642455D01*
X186556206Y-83757664D01*
X186556202Y-83757671D01*
X186505908Y-83892517D01*
X186499501Y-83952116D01*
X186499501Y-83952123D01*
X186499500Y-83952135D01*
X186499500Y-84248500D01*
X186479815Y-84315539D01*
X186427011Y-84361294D01*
X186375500Y-84372500D01*
X175765725Y-84372500D01*
X175698686Y-84352815D01*
X175678044Y-84336181D01*
X174941819Y-83599956D01*
X174908334Y-83538633D01*
X174905500Y-83512275D01*
X174905500Y-80852135D01*
X178399500Y-80852135D01*
X178399500Y-82947870D01*
X178399501Y-82947876D01*
X178405908Y-83007483D01*
X178456202Y-83142328D01*
X178456206Y-83142335D01*
X178542452Y-83257544D01*
X178542455Y-83257547D01*
X178657664Y-83343793D01*
X178657671Y-83343797D01*
X178792517Y-83394091D01*
X178792516Y-83394091D01*
X178799444Y-83394835D01*
X178852127Y-83400500D01*
X182147872Y-83400499D01*
X182207483Y-83394091D01*
X182342331Y-83343796D01*
X182457546Y-83257546D01*
X182543796Y-83142331D01*
X182594091Y-83007483D01*
X182600500Y-82947873D01*
X182600499Y-80852128D01*
X182594091Y-80792517D01*
X182585444Y-80769334D01*
X182543797Y-80657671D01*
X182543793Y-80657664D01*
X182457547Y-80542455D01*
X182457544Y-80542452D01*
X182342335Y-80456206D01*
X182342328Y-80456202D01*
X182207482Y-80405908D01*
X182207483Y-80405908D01*
X182147883Y-80399501D01*
X182147881Y-80399500D01*
X182147873Y-80399500D01*
X182147864Y-80399500D01*
X178852129Y-80399500D01*
X178852123Y-80399501D01*
X178792516Y-80405908D01*
X178657671Y-80456202D01*
X178657664Y-80456206D01*
X178542455Y-80542452D01*
X178542452Y-80542455D01*
X178456206Y-80657664D01*
X178456202Y-80657671D01*
X178405908Y-80792517D01*
X178402333Y-80825776D01*
X178399501Y-80852123D01*
X178399500Y-80852135D01*
X174905500Y-80852135D01*
X174905500Y-76085646D01*
X176507000Y-76085646D01*
X176507000Y-76314353D01*
X176542778Y-76540246D01*
X176542778Y-76540249D01*
X176613450Y-76757755D01*
X176613452Y-76757758D01*
X176717283Y-76961538D01*
X176851714Y-77146566D01*
X177013434Y-77308286D01*
X177198462Y-77442717D01*
X177402242Y-77546548D01*
X177402244Y-77546549D01*
X177619751Y-77617221D01*
X177619752Y-77617221D01*
X177619755Y-77617222D01*
X177845646Y-77653000D01*
X177845647Y-77653000D01*
X178074353Y-77653000D01*
X178074354Y-77653000D01*
X178300245Y-77617222D01*
X178300248Y-77617221D01*
X178300249Y-77617221D01*
X178517755Y-77546549D01*
X178517755Y-77546548D01*
X178517758Y-77546548D01*
X178721538Y-77442717D01*
X178906566Y-77308286D01*
X179068286Y-77146566D01*
X179202717Y-76961538D01*
X179306548Y-76757758D01*
X179346153Y-76635867D01*
X179377221Y-76540249D01*
X179377221Y-76540248D01*
X179377222Y-76540245D01*
X179413000Y-76314354D01*
X179413000Y-76085646D01*
X179377222Y-75859755D01*
X179377221Y-75859751D01*
X179377221Y-75859750D01*
X179306549Y-75642244D01*
X179202716Y-75438461D01*
X179068286Y-75253434D01*
X178906566Y-75091714D01*
X178721538Y-74957283D01*
X178527544Y-74858438D01*
X178517755Y-74853450D01*
X178300248Y-74782778D01*
X178130826Y-74755944D01*
X178074354Y-74747000D01*
X177845646Y-74747000D01*
X177770349Y-74758926D01*
X177619753Y-74782778D01*
X177619750Y-74782778D01*
X177402244Y-74853450D01*
X177198461Y-74957283D01*
X177092896Y-75033980D01*
X177013434Y-75091714D01*
X177013432Y-75091716D01*
X177013431Y-75091716D01*
X176851716Y-75253431D01*
X176851716Y-75253432D01*
X176851714Y-75253434D01*
X176793980Y-75332896D01*
X176717283Y-75438461D01*
X176613450Y-75642244D01*
X176542778Y-75859750D01*
X176542778Y-75859753D01*
X176507000Y-76085646D01*
X174905500Y-76085646D01*
X174905500Y-73175596D01*
X174925185Y-73108557D01*
X174977989Y-73062802D01*
X175047147Y-73052858D01*
X175102385Y-73075278D01*
X175212184Y-73155051D01*
X175401588Y-73251557D01*
X175603757Y-73317246D01*
X175813713Y-73350500D01*
X175813714Y-73350500D01*
X176026286Y-73350500D01*
X176026287Y-73350500D01*
X176236243Y-73317246D01*
X176438412Y-73251557D01*
X176627816Y-73155051D01*
X176714138Y-73092335D01*
X176799786Y-73030109D01*
X176799788Y-73030106D01*
X176799792Y-73030104D01*
X176950104Y-72879792D01*
X176950106Y-72879788D01*
X176950109Y-72879786D01*
X177075048Y-72707820D01*
X177075047Y-72707820D01*
X177075051Y-72707816D01*
X177079514Y-72699054D01*
X177127488Y-72648259D01*
X177195308Y-72631463D01*
X177261444Y-72653999D01*
X177300486Y-72699056D01*
X177304951Y-72707820D01*
X177429890Y-72879786D01*
X177580213Y-73030109D01*
X177752179Y-73155048D01*
X177752181Y-73155049D01*
X177752184Y-73155051D01*
X177941588Y-73251557D01*
X178143757Y-73317246D01*
X178353713Y-73350500D01*
X178353714Y-73350500D01*
X178566284Y-73350500D01*
X178566287Y-73350500D01*
X178661731Y-73335382D01*
X178731020Y-73344336D01*
X178768807Y-73370174D01*
X179336580Y-73937948D01*
X179336584Y-73937951D01*
X179459498Y-74020080D01*
X179459511Y-74020087D01*
X179596082Y-74076656D01*
X179596087Y-74076658D01*
X179596091Y-74076658D01*
X179596092Y-74076659D01*
X179741079Y-74105500D01*
X179741082Y-74105500D01*
X179888917Y-74105500D01*
X182637770Y-74105500D01*
X182704809Y-74125185D01*
X182725451Y-74141819D01*
X183118951Y-74535319D01*
X183152436Y-74596642D01*
X183147452Y-74666334D01*
X183105580Y-74722267D01*
X183040116Y-74746684D01*
X183031270Y-74747000D01*
X182925646Y-74747000D01*
X182850349Y-74758926D01*
X182699753Y-74782778D01*
X182699750Y-74782778D01*
X182482244Y-74853450D01*
X182278461Y-74957283D01*
X182172896Y-75033980D01*
X182093434Y-75091714D01*
X182093432Y-75091716D01*
X182093431Y-75091716D01*
X181931716Y-75253431D01*
X181931716Y-75253432D01*
X181931714Y-75253434D01*
X181873980Y-75332896D01*
X181797283Y-75438461D01*
X181693450Y-75642244D01*
X181622778Y-75859750D01*
X181622778Y-75859753D01*
X181587000Y-76085646D01*
X181587000Y-76314353D01*
X181622778Y-76540246D01*
X181622778Y-76540249D01*
X181693450Y-76757755D01*
X181693452Y-76757758D01*
X181797283Y-76961538D01*
X181931714Y-77146566D01*
X182093434Y-77308286D01*
X182278462Y-77442717D01*
X182482242Y-77546548D01*
X182482244Y-77546549D01*
X182699751Y-77617221D01*
X182699752Y-77617221D01*
X182699755Y-77617222D01*
X182925646Y-77653000D01*
X182925647Y-77653000D01*
X183154353Y-77653000D01*
X183154354Y-77653000D01*
X183380245Y-77617222D01*
X183380248Y-77617221D01*
X183380249Y-77617221D01*
X183597755Y-77546549D01*
X183597755Y-77546548D01*
X183597758Y-77546548D01*
X183801538Y-77442717D01*
X183986566Y-77308286D01*
X184148286Y-77146566D01*
X184282717Y-76961538D01*
X184386548Y-76757758D01*
X184426153Y-76635867D01*
X184457221Y-76540249D01*
X184457221Y-76540248D01*
X184457222Y-76540245D01*
X184493000Y-76314354D01*
X184493000Y-76208730D01*
X184512685Y-76141691D01*
X184565489Y-76095936D01*
X184634647Y-76085992D01*
X184698203Y-76115017D01*
X184704681Y-76121049D01*
X194371586Y-85787954D01*
X194394422Y-85803211D01*
X194445270Y-85837186D01*
X194494505Y-85870084D01*
X194551080Y-85893518D01*
X194631088Y-85926659D01*
X194747241Y-85949763D01*
X194766468Y-85953587D01*
X194776081Y-85955500D01*
X194776082Y-85955500D01*
X205078920Y-85955500D01*
X205176462Y-85936096D01*
X205223913Y-85926658D01*
X205360495Y-85870084D01*
X205409729Y-85837186D01*
X205423502Y-85827984D01*
X205434071Y-85820921D01*
X205483416Y-85787952D01*
X207937952Y-83333416D01*
X208006606Y-83230666D01*
X208020084Y-83210495D01*
X208076658Y-83073913D01*
X208101730Y-82947870D01*
X208105500Y-82928920D01*
X208105500Y-80499986D01*
X210355001Y-80499986D01*
X210365494Y-80602697D01*
X210420641Y-80769119D01*
X210420643Y-80769124D01*
X210512684Y-80918345D01*
X210636654Y-81042315D01*
X210785875Y-81134356D01*
X210785880Y-81134358D01*
X210952302Y-81189505D01*
X210952309Y-81189506D01*
X211055019Y-81199999D01*
X211204999Y-81199999D01*
X211205000Y-81199998D01*
X211205000Y-80250000D01*
X210355001Y-80250000D01*
X210355001Y-80499986D01*
X208105500Y-80499986D01*
X208105500Y-79500013D01*
X210355000Y-79500013D01*
X210355000Y-79750000D01*
X211205000Y-79750000D01*
X211205000Y-78800000D01*
X211055027Y-78800000D01*
X211055012Y-78800001D01*
X210952302Y-78810494D01*
X210785880Y-78865641D01*
X210785875Y-78865643D01*
X210636654Y-78957684D01*
X210512684Y-79081654D01*
X210420643Y-79230875D01*
X210420641Y-79230880D01*
X210365494Y-79397302D01*
X210365493Y-79397309D01*
X210355000Y-79500013D01*
X208105500Y-79500013D01*
X208105500Y-76687229D01*
X208125185Y-76620190D01*
X208141819Y-76599548D01*
X213503085Y-71238282D01*
X218916850Y-65824516D01*
X218978171Y-65791033D01*
X219047863Y-65796017D01*
X219103796Y-65837889D01*
X219127002Y-65892800D01*
X219132010Y-65924418D01*
X219195244Y-66119031D01*
X219288140Y-66301349D01*
X219408417Y-66466894D01*
X219408417Y-66466895D01*
X219553104Y-66611582D01*
X219718650Y-66731859D01*
X219900968Y-66824755D01*
X220095582Y-66887990D01*
X220297683Y-66920000D01*
X220350000Y-66920000D01*
X220350000Y-66053012D01*
X220407007Y-66085925D01*
X220534174Y-66120000D01*
X220665826Y-66120000D01*
X220792993Y-66085925D01*
X220850000Y-66053012D01*
X220850000Y-66920000D01*
X220902317Y-66920000D01*
X221104417Y-66887990D01*
X221299031Y-66824755D01*
X221481349Y-66731859D01*
X221646894Y-66611582D01*
X221646895Y-66611582D01*
X221791582Y-66466895D01*
X221791582Y-66466894D01*
X221911859Y-66301349D01*
X222004755Y-66119029D01*
X222067990Y-65924413D01*
X222076609Y-65870000D01*
X221033012Y-65870000D01*
X221065925Y-65812993D01*
X221100000Y-65685826D01*
X221100000Y-65554174D01*
X221065925Y-65427007D01*
X221033012Y-65370000D01*
X222076609Y-65370000D01*
X222067990Y-65315586D01*
X222004755Y-65120970D01*
X221911859Y-64938650D01*
X221791582Y-64773105D01*
X221791582Y-64773104D01*
X221646895Y-64628417D01*
X221481349Y-64508140D01*
X221388370Y-64460765D01*
X221337574Y-64412790D01*
X221320779Y-64344969D01*
X221343316Y-64278835D01*
X221388370Y-64239795D01*
X221481610Y-64192287D01*
X221547509Y-64144409D01*
X221647213Y-64071971D01*
X221647215Y-64071968D01*
X221647219Y-64071966D01*
X221791966Y-63927219D01*
X221791968Y-63927215D01*
X221791971Y-63927213D01*
X221844732Y-63854590D01*
X221912287Y-63761610D01*
X222005220Y-63579219D01*
X222068477Y-63384534D01*
X222100500Y-63182352D01*
X222100500Y-62977648D01*
X222080728Y-62852815D01*
X222068477Y-62775465D01*
X222005218Y-62580776D01*
X221944900Y-62462397D01*
X221912287Y-62398390D01*
X221874460Y-62346325D01*
X221791971Y-62232786D01*
X221647213Y-62088028D01*
X221481614Y-61967715D01*
X221445227Y-61949175D01*
X221388917Y-61920483D01*
X221338123Y-61872511D01*
X221321328Y-61804690D01*
X221343865Y-61738555D01*
X221388917Y-61699516D01*
X221481610Y-61652287D01*
X221547509Y-61604409D01*
X221647213Y-61531971D01*
X221647215Y-61531968D01*
X221647219Y-61531966D01*
X221791966Y-61387219D01*
X221791968Y-61387215D01*
X221791971Y-61387213D01*
X221844732Y-61314590D01*
X221912287Y-61221610D01*
X222005220Y-61039219D01*
X222068477Y-60844534D01*
X222100500Y-60642352D01*
X222100500Y-60437648D01*
X222091141Y-60378560D01*
X222068477Y-60235465D01*
X222009057Y-60052590D01*
X222005220Y-60040781D01*
X222005218Y-60040778D01*
X222005218Y-60040776D01*
X221940818Y-59914386D01*
X221912287Y-59858390D01*
X221862831Y-59790319D01*
X221791971Y-59692786D01*
X221647213Y-59548028D01*
X221481614Y-59427715D01*
X221445227Y-59409175D01*
X221388917Y-59380483D01*
X221338123Y-59332511D01*
X221321328Y-59264690D01*
X221343865Y-59198555D01*
X221388917Y-59159516D01*
X221481610Y-59112287D01*
X221502770Y-59096913D01*
X221647213Y-58991971D01*
X221647215Y-58991968D01*
X221647219Y-58991966D01*
X221791966Y-58847219D01*
X221791968Y-58847215D01*
X221791971Y-58847213D01*
X221844732Y-58774590D01*
X221912287Y-58681610D01*
X222005220Y-58499219D01*
X222068477Y-58304534D01*
X222100500Y-58102352D01*
X222100500Y-57897648D01*
X222068477Y-57695466D01*
X222067267Y-57691743D01*
X222005218Y-57500776D01*
X221951713Y-57395768D01*
X221912287Y-57318390D01*
X221904556Y-57307749D01*
X221791971Y-57152786D01*
X221647213Y-57008028D01*
X221481613Y-56887715D01*
X221481612Y-56887714D01*
X221481610Y-56887713D01*
X221424653Y-56858691D01*
X221299223Y-56794781D01*
X221104534Y-56731522D01*
X220929995Y-56703878D01*
X220902352Y-56699500D01*
X220297648Y-56699500D01*
X220273329Y-56703351D01*
X220095465Y-56731522D01*
X219900776Y-56794781D01*
X219718386Y-56887715D01*
X219552786Y-57008028D01*
X219408028Y-57152786D01*
X219287715Y-57318386D01*
X219194781Y-57500776D01*
X219131522Y-57695465D01*
X219099500Y-57897648D01*
X219099500Y-58102351D01*
X219131523Y-58304535D01*
X219131523Y-58304538D01*
X219175855Y-58440975D01*
X219177850Y-58510816D01*
X219145605Y-58566974D01*
X217416400Y-60296181D01*
X217355077Y-60329666D01*
X217328719Y-60332500D01*
X191086733Y-60332500D01*
X191019694Y-60312815D01*
X190976249Y-60264796D01*
X190959406Y-60231741D01*
X190830857Y-60054806D01*
X190676199Y-59900148D01*
X190631912Y-59867972D01*
X190525028Y-59790316D01*
X190482364Y-59734989D01*
X190476385Y-59665376D01*
X190508990Y-59603580D01*
X190525023Y-59589686D01*
X190676199Y-59479852D01*
X190830852Y-59325199D01*
X190830854Y-59325195D01*
X190830857Y-59325193D01*
X190918021Y-59205220D01*
X190959407Y-59148257D01*
X191058701Y-58953383D01*
X191126286Y-58745375D01*
X191147895Y-58608939D01*
X191160500Y-58529361D01*
X191160500Y-58310638D01*
X191140595Y-58184971D01*
X191126286Y-58094625D01*
X191058701Y-57886617D01*
X191058701Y-57886616D01*
X191024315Y-57819132D01*
X190959407Y-57691743D01*
X190933271Y-57655769D01*
X190888990Y-57594821D01*
X190865510Y-57529015D01*
X190881336Y-57460961D01*
X190901623Y-57434259D01*
X192038411Y-56297473D01*
X192056838Y-56269895D01*
X192079824Y-56235495D01*
X192079824Y-56235494D01*
X192107083Y-56194698D01*
X192154385Y-56080500D01*
X192178500Y-55959268D01*
X192178500Y-50000898D01*
X192178500Y-50000896D01*
X192173608Y-49976300D01*
X192173608Y-49976299D01*
X192154387Y-49879672D01*
X192154386Y-49879671D01*
X192154386Y-49879667D01*
X192109407Y-49771080D01*
X192107763Y-49766485D01*
X192038414Y-49662697D01*
X192038413Y-49662695D01*
X191997052Y-49621334D01*
X191951008Y-49575290D01*
X191485218Y-49109500D01*
X189861311Y-47485591D01*
X189861307Y-47485588D01*
X189758539Y-47416920D01*
X189758526Y-47416913D01*
X189644339Y-47369616D01*
X189644329Y-47369613D01*
X189523105Y-47345500D01*
X189523103Y-47345500D01*
X159588803Y-47345500D01*
X159465196Y-47345500D01*
X159465194Y-47345500D01*
X159343970Y-47369613D01*
X159343960Y-47369616D01*
X159229773Y-47416913D01*
X159229760Y-47416920D01*
X159126992Y-47485588D01*
X159126988Y-47485591D01*
X150004324Y-56608257D01*
X147048992Y-59563589D01*
X147022900Y-59589681D01*
X146961586Y-59650994D01*
X146961585Y-59650996D01*
X146892233Y-59754789D01*
X146890586Y-59759393D01*
X146845614Y-59867964D01*
X146845612Y-59867972D01*
X146823314Y-59980071D01*
X146823315Y-59980072D01*
X146821500Y-59989198D01*
X136500500Y-59989198D01*
X136500500Y-47506961D01*
X136501280Y-47493077D01*
X136501280Y-47493076D01*
X136511460Y-47402729D01*
X136517635Y-47375670D01*
X136545353Y-47296456D01*
X136557396Y-47271450D01*
X136602046Y-47200389D01*
X136619351Y-47178690D01*
X136678690Y-47119351D01*
X136700389Y-47102046D01*
X136771450Y-47057396D01*
X136796456Y-47045353D01*
X136875670Y-47017635D01*
X136902733Y-47011459D01*
X136965419Y-47004396D01*
X136993079Y-47001280D01*
X137006962Y-47000500D01*
X137065892Y-47000500D01*
X225934108Y-47000500D01*
X225993038Y-47000500D01*
X226006922Y-47001280D01*
G37*
%TD.AperFunction*%
%TD*%
M02*
