M48
; DRILL file {KiCad 9.0.6} date 2026-02-02T20:02:38-0800
; FORMAT={-:-/ absolute / metric / decimal}
; #@! TF.CreationDate,2026-02-02T20:02:38-08:00
; #@! TF.GenerationSoftware,Kicad,Pcbnew,9.0.6
; #@! TF.FileFunction,Plated,1,2,PTH
FMAT,2
METRIC
; #@! TA.AperFunction,Plated,PTH,ComponentDrill
T1C0.850
; #@! TA.AperFunction,Plated,PTH,ComponentDrill
T2C1.000
; #@! TA.AperFunction,Plated,PTH,ComponentDrill
T3C1.016
; #@! TA.AperFunction,Plated,PTH,ComponentDrill
T4C1.500
%
G90
G05
T1
X149.19Y-61.07
X149.19Y-83.93
X156.81Y-61.07
X156.81Y-83.93
T2
X173.5Y-85.0
X173.5Y-90.0
X175.92Y-72.0
X178.46Y-72.0
X181.0Y-72.0
X183.54Y-72.0
X188.0Y-85.0
X188.0Y-87.5
X188.0Y-90.0
X203.46Y-81.5
X206.0Y-81.5
X214.92Y-89.0
X217.46Y-89.0
X220.0Y-79.96
X220.0Y-82.5
X220.0Y-89.0
X220.6Y-58.0
X220.6Y-60.54
X220.6Y-63.08
X220.6Y-65.62
T3
X172.88Y-50.8
X172.88Y-53.34
X172.88Y-55.88
X172.88Y-58.42
X172.88Y-60.96
X172.88Y-63.5
X172.88Y-66.04
X177.96Y-76.2
X183.04Y-76.2
X188.12Y-50.8
X188.12Y-53.34
X188.12Y-55.88
X188.12Y-58.42
X188.12Y-60.96
X188.12Y-63.5
X188.12Y-66.04
T4
G00X181.15Y-81.9
M15
G01X179.85Y-81.9
M16
G05
G00X181.15Y-93.1
M15
G01X179.85Y-93.1
M16
G05
M30
